<svg width="41" height="41" viewBox="0 0 41 41" fill="none" xmlns="http://www.w3.org/2000/svg">
<path d="M29.1274 34.645C27.4532 36.2679 25.6253 36.0117 23.8657 35.2429C22.0037 34.4571 20.2953 34.4229 18.3307 35.2429C15.8707 36.3021 14.5724 35.9946 13.1032 34.645C4.76657 26.0521 5.99657 12.9662 15.4607 12.4879C17.767 12.6075 19.3728 13.7521 20.7224 13.8546C22.7382 13.4446 24.6687 12.2658 26.8212 12.4196C29.4007 12.6246 31.3482 13.6496 32.6295 15.4946C27.2995 18.6892 28.5637 25.7104 33.4495 27.675C32.4757 30.2375 31.2116 32.7829 29.1103 34.6621L29.1274 34.645ZM20.5516 12.3854C20.2953 8.57583 23.3874 5.4325 26.9407 5.125C27.4362 9.5325 22.9432 12.8125 20.5516 12.3854Z" fill="#111111"/>
</svg>
