<svg width="22" height="22" viewBox="0 0 22 22" fill="none" xmlns="http://www.w3.org/2000/svg">
<path fill-rule="evenodd" clip-rule="evenodd" d="M11 20.4286C16.2073 20.4286 20.4286 16.2073 20.4286 11C20.4286 5.79274 16.2073 1.57143 11 1.57143C5.79274 1.57143 1.57143 5.79274 1.57143 11C1.57143 16.2073 5.79274 20.4286 11 20.4286ZM11 22C17.0751 22 22 17.0751 22 11C22 4.92487 17.0751 0 11 0C4.92487 0 0 4.92487 0 11C0 17.0751 4.92487 22 11 22Z" fill="#3B82F6"/>
<path d="M8.9112 10.5244L13.3684 15.0673L12.0707 16.3405L6.34027 10.4999L12.1809 4.76949L13.4541 6.06811L8.9112 10.5253L8.9112 10.5244Z" fill="#111111"/>
</svg>
