<svg width="31" height="31" viewBox="0 0 31 31" fill="none" xmlns="http://www.w3.org/2000/svg">
<path d="M14.0758 6.26787C14.2118 6.4041 14.2883 6.58877 14.2883 6.78131C14.2883 6.97385 14.2118 7.15851 14.0758 7.29475L6.59825 14.7735L26.1561 14.7735C26.3488 14.7735 26.5336 14.85 26.6699 14.9863C26.8061 15.1226 26.8827 15.3074 26.8827 15.5001C26.8827 15.6928 26.8061 15.8776 26.6699 16.0138C26.5336 16.1501 26.3488 16.2266 26.1561 16.2266L6.59825 16.2266L14.0758 23.7054C14.2041 23.8431 14.274 24.0253 14.2707 24.2135C14.2674 24.4017 14.1911 24.5813 14.058 24.7144C13.9249 24.8476 13.7453 24.9238 13.557 24.9271C13.3688 24.9305 13.1866 24.8606 13.0489 24.7322L4.33016 16.0135C4.1941 15.8773 4.11768 15.6926 4.11768 15.5001C4.11768 15.3075 4.1941 15.1229 4.33016 14.9866L13.0489 6.26787C13.1851 6.13181 13.3698 6.05538 13.5623 6.05538C13.7549 6.05538 13.9396 6.13181 14.0758 6.26787Z" fill="#111111"/>
</svg>
