<svg width="23" height="23" viewBox="0 0 23 23" fill="none" xmlns="http://www.w3.org/2000/svg">
<path d="M11.5 21.5625C5.95125 21.5625 1.4375 17.0487 1.4375 11.5C1.4375 5.95125 5.95125 1.4375 11.5 1.4375C17.0487 1.4375 21.5625 5.95125 21.5625 11.5C21.5625 17.0487 17.0487 21.5625 11.5 21.5625ZM11.5 2.875C6.74188 2.875 2.875 6.74188 2.875 11.5C2.875 16.2581 6.74188 20.125 11.5 20.125C16.2581 20.125 20.125 16.2581 20.125 11.5C20.125 6.74188 16.2581 2.875 11.5 2.875Z" fill="#111111"/>
<path d="M14.375 15.0938C14.2457 15.0938 14.1163 15.065 14.0013 14.9931L10.4075 12.8369C10.3011 12.7729 10.2133 12.6822 10.1527 12.5738C10.0922 12.4653 10.0611 12.3429 10.0625 12.2188V6.46875C10.0625 6.06625 10.3788 5.75 10.7813 5.75C11.1838 5.75 11.5 6.06625 11.5 6.46875V11.8163L14.7488 13.7569C14.8826 13.8389 14.986 13.9623 15.0434 14.1084C15.1008 14.2545 15.1089 14.4153 15.0667 14.5664C15.0244 14.7176 14.934 14.8508 14.8092 14.946C14.6844 15.0411 14.532 15.093 14.375 15.0938Z" fill="#111111"/>
</svg>
