<svg width="25" height="25" viewBox="0 0 25 25" fill="none" xmlns="http://www.w3.org/2000/svg">
<path d="M4.8887 5.02499C5.87941 4.01029 7.06334 3.20431 8.37061 2.65462C9.67788 2.10493 11.082 1.82266 12.5002 1.82447C18.3825 1.82447 23.1512 6.5927 23.1512 12.475C23.1512 18.3573 18.3825 23.126 12.5002 23.126C6.61787 23.126 1.84912 18.3568 1.84912 12.4745C1.84912 10.4193 2.43193 8.49999 3.44027 6.87239" stroke="#111111" stroke-linecap="round" stroke-linejoin="round"/>
<path d="M16.0515 12.4083C16.0515 12.7113 15.9311 13.0019 15.7169 13.2161C15.5026 13.4304 15.212 13.5507 14.909 13.5507C14.6061 13.5507 14.3155 13.4304 14.1012 13.2161C13.887 13.0019 13.7666 12.7113 13.7666 12.4083C13.7666 11.7776 14.2781 11.2661 14.9088 11.2661C15.5395 11.2661 16.0515 11.7776 16.0515 12.4083Z" stroke="#111111" stroke-linecap="round" stroke-linejoin="round"/>
<path d="M12.8383 8.87503H18.4164C18.8003 8.8742 19.1688 9.02588 19.4409 9.29672C19.713 9.56756 19.8665 9.93538 19.8674 10.3193V14.4912C19.8681 14.8751 19.7163 15.2436 19.4454 15.5156C19.1744 15.7876 18.8065 15.9409 18.4226 15.9417H12.8383C12.4543 15.9425 12.0858 15.7908 11.8137 15.52C11.5416 15.2492 11.3882 14.8813 11.3872 14.4974V10.3256C11.3868 10.1354 11.4238 9.94705 11.4962 9.77122C11.5686 9.5954 11.6749 9.43555 11.8091 9.30081C11.9432 9.16606 12.1026 9.05907 12.2781 8.98592C12.4537 8.91278 12.6419 8.87492 12.832 8.87451H12.8383V8.87503Z" stroke="#111111" stroke-linecap="round" stroke-linejoin="round"/>
<path d="M18.672 15.9177V17.35C18.6725 17.5401 18.6355 17.7285 18.5632 17.9043C18.4909 18.0802 18.3846 18.2401 18.2505 18.3749C18.1164 18.5097 17.9571 18.6167 17.7816 18.6899C17.6061 18.7631 17.4179 18.8011 17.2278 18.8015H7.50537C7.31523 18.8019 7.12687 18.7649 6.95104 18.6925C6.77521 18.6201 6.61536 18.5138 6.48062 18.3797C6.34588 18.2455 6.23888 18.0861 6.16574 17.9106C6.0926 17.7351 6.05474 17.5469 6.05433 17.3567V7.59997C6.05392 7.40983 6.09096 7.22146 6.16335 7.04564C6.23573 6.86981 6.34204 6.70996 6.4762 6.57522C6.61037 6.44048 6.76975 6.33348 6.94526 6.26034C7.12078 6.1872 7.30898 6.14934 7.49912 6.14893H17.2205C17.6044 6.14824 17.9729 6.30005 18.2449 6.57099C18.5169 6.84192 18.6702 7.2098 18.671 7.59372V8.89789M0.755371 8.62653L3.56527 6.5682L3.94287 10.0307" stroke="#111111" stroke-linecap="round" stroke-linejoin="round"/>
</svg>
