<svg width="921" height="403" viewBox="0 0 921 403" fill="none" xmlns="http://www.w3.org/2000/svg">
<path d="M5 391C310.785 236.089 387.231 197.361 387.231 197.361H669.676L898 81.6911V31.8633V1" stroke="#FF0000" stroke-opacity="0.83" stroke-width="2"/>
<path d="M0.570312 80.8743C244.381 88.5505 386.499 184.594 416.871 190.534L562.969 270.723" stroke="#3676E0" stroke-width="2"/>
<path d="M561.398 270.037L674.506 318.014L842.598 239.881" stroke="#3676E0" stroke-width="2"/>
<path d="M842.599 239.881L919.575 392.034" stroke="#3676E0" stroke-width="2"/>
<ellipse cx="18" cy="79" rx="12" ry="9" fill="#3B82F6"/>
<line x1="913.791" y1="1.07932e-08" x2="913.791" y2="403" stroke="black" stroke-opacity="0.06"/>
<ellipse cx="226.5" cy="114.5" rx="13.5" ry="11.5" fill="#3B82F6"/>
<ellipse cx="431.5" cy="199.5" rx="9.5" ry="7.5" fill="#3676E0"/>
<ellipse cx="673.5" cy="318.5" rx="11.5" ry="9.5" fill="#3B82F6"/>
<ellipse cx="678" cy="198" rx="19" ry="15" fill="#FF2B2B"/>
<ellipse cx="896.5" cy="79" rx="7.5" ry="7" fill="#FF2B2B"/>
<ellipse cx="897.5" cy="40" rx="8.5" ry="8" fill="#FF2B2B"/>
<ellipse cx="6.5" cy="391.5" rx="5.5" ry="4.5" fill="#FF2B2B"/>
<ellipse cx="225.5" cy="280.5" rx="8.5" ry="6.5" fill="#FF2B2B"/>
<ellipse cx="840" cy="242.5" rx="11" ry="8.5" fill="#3B82F6"/>
<ellipse cx="899.5" cy="353.5" rx="18.5" ry="15.5" fill="#3B82F6"/>
</svg>
