<svg width="25" height="25" viewBox="0 0 25 25" fill="none" xmlns="http://www.w3.org/2000/svg">
<path d="M5.60498 22.0494H16.6545C19.6815 22.0494 22.1352 19.5952 22.1352 16.5687V2.95044H11.0894C10.3625 2.95044 9.66541 3.23918 9.15144 3.75315C8.63747 4.26712 8.34873 4.96421 8.34873 5.69106L8.34508 8.34731" stroke="#111111" stroke-linecap="round" stroke-linejoin="round"/>
<path d="M2.86475 13.2244H8.34548M11.6861 13.2244H18.645M11.6861 16.7588H18.645M5.60537 8.34731H8.34548V19.3088C8.3452 20.0355 8.05644 20.7323 7.54264 21.2462C7.02885 21.7601 6.33206 22.049 5.60537 22.0494C4.8786 22.0491 4.18167 21.7603 3.66776 21.2464C3.15385 20.7325 2.86502 20.0355 2.86475 19.3088V11.0874C2.86516 10.3607 3.15405 9.66394 3.66795 9.15015C4.18184 8.63635 4.87869 8.34759 5.60537 8.34731ZM11.6861 6.93481H14.7267V9.97544H11.6861V6.93481Z" stroke="#111111" stroke-linecap="round" stroke-linejoin="round"/>
</svg>
