<svg width="27" height="27" viewBox="0 0 27 27" fill="none" xmlns="http://www.w3.org/2000/svg">
<g clip-path="url(#clip0_165_4801)">
<path d="M17.5499 1.35C17.5499 0.991958 17.6921 0.64858 17.9453 0.395406C18.1985 0.142232 18.5419 0 18.8999 0H22.9499C23.3079 0 23.6513 0.142232 23.9045 0.395406C24.1577 0.64858 24.2999 0.991958 24.2999 1.35V4.05C24.2999 4.40804 24.1577 4.75142 23.9045 5.00459C23.6513 5.25777 23.3079 5.4 22.9499 5.4H18.8999C18.5419 5.4 18.1985 5.25777 17.9453 5.00459C17.6921 4.75142 17.5499 4.40804 17.5499 4.05V1.35ZM22.9499 1.35H18.8999V4.05H22.9499V1.35ZM20.9249 6.75C21.1039 6.75 21.2756 6.82112 21.4022 6.9477C21.5288 7.07429 21.5999 7.24598 21.5999 7.425V15.2456L23.147 13.6971C23.2738 13.5704 23.4457 13.4991 23.6249 13.4991C23.8041 13.4991 23.9761 13.5704 24.1028 13.6971C24.2295 13.8238 24.3008 13.9958 24.3008 14.175C24.3008 14.3542 24.2295 14.5262 24.1028 14.6529L21.4028 17.3529C21.3401 17.4158 21.2656 17.4656 21.1836 17.4997C21.1016 17.5337 21.0137 17.5512 20.9249 17.5512C20.8361 17.5512 20.7482 17.5337 20.6662 17.4997C20.5842 17.4656 20.5097 17.4158 20.447 17.3529L17.747 14.6529C17.6203 14.5262 17.5491 14.3542 17.5491 14.175C17.5491 13.9958 17.6203 13.8238 17.747 13.6971C17.8737 13.5704 18.0457 13.4991 18.2249 13.4991C18.4042 13.4991 18.5761 13.5704 18.7028 13.6971L20.2499 15.2456V7.425C20.2499 7.24598 20.321 7.07429 20.4476 6.9477C20.5742 6.82112 20.7459 6.75 20.9249 6.75ZM8.0999 13.5C8.0999 13.142 8.24213 12.7986 8.49531 12.5454C8.74848 12.2922 9.09186 12.15 9.4499 12.15H13.4999C13.8579 12.15 14.2013 12.2922 14.4545 12.5454C14.7077 12.7986 14.8499 13.142 14.8499 13.5V16.2C14.8499 16.558 14.7077 16.9014 14.4545 17.1546C14.2013 17.4078 13.8579 17.55 13.4999 17.55H9.4499C9.09186 17.55 8.74848 17.4078 8.49531 17.1546C8.24213 16.9014 8.0999 16.558 8.0999 16.2V13.5ZM13.4999 13.5H9.4499V16.2H13.4999V13.5ZM6.0749 14.85C6.25392 14.85 6.42561 14.9211 6.5522 15.0477C6.67879 15.1743 6.7499 15.346 6.7499 15.525V17.55C6.7499 17.908 6.89213 18.2514 7.14531 18.5046C7.39848 18.7578 7.74186 18.9 8.0999 18.9H24.2999C24.6579 18.9 25.0013 18.7578 25.2545 18.5046C25.5077 18.2514 25.6499 17.908 25.6499 17.55V15.525C25.6499 15.346 25.721 15.1743 25.8476 15.0477C25.9742 14.9211 26.1459 14.85 26.3249 14.85C26.5039 14.85 26.6756 14.9211 26.8022 15.0477C26.9288 15.1743 26.9999 15.346 26.9999 15.525V17.55C26.9999 18.2661 26.7154 18.9528 26.2091 19.4592C25.7027 19.9655 25.016 20.25 24.2999 20.25H8.0999C7.38382 20.25 6.69706 19.9655 6.19071 19.4592C5.68437 18.9528 5.3999 18.2661 5.3999 17.55V15.525C5.3999 15.346 5.47102 15.1743 5.59761 15.0477C5.72419 14.9211 5.89588 14.85 6.0749 14.85Z" fill="#111111"/>
</g>
<defs>
<clipPath id="clip0_165_4801">
<rect width="27" height="27" fill="white"/>
</clipPath>
</defs>
</svg>
