<svg width="17" height="22" viewBox="0 0 17 22" fill="none" xmlns="http://www.w3.org/2000/svg">
<path d="M5.77453 16.3714V17.1034C5.77453 17.8799 6.06162 18.6246 6.57265 19.1737C7.08368 19.7228 7.77679 20.0312 8.49949 20.0312C9.2222 20.0312 9.9153 19.7228 10.4263 19.1737C10.9374 18.6246 11.2245 17.8799 11.2245 17.1034V16.3714M1.18978 14.8814C2.28317 13.4435 3.0551 12.7115 3.0551 8.74746C3.0551 5.11734 4.78034 3.82404 6.2003 3.19591C6.38892 3.11265 6.56647 2.92142 6.62395 2.71327C6.87303 1.80242 7.5713 1 8.49949 1C9.42768 1 10.1264 1.80288 10.3729 2.71418C10.4304 2.92463 10.6079 3.11265 10.7965 3.19591C12.2182 3.82495 13.9418 5.11368 13.9418 8.74746C13.9439 12.7115 14.7158 13.4435 15.8092 14.8814C16.2622 15.477 15.8654 16.3714 15.073 16.3714H1.92169C1.13358 16.3714 0.739311 15.4743 1.18978 14.8814Z" stroke="#407BFF" stroke-opacity="0.87" stroke-width="2" stroke-linecap="round" stroke-linejoin="round"/>
</svg>
