<svg width="534" height="524" viewBox="0 0 534 524" fill="none" xmlns="http://www.w3.org/2000/svg">
<path d="M533.834 352.57H329.04V234.059H533.834V352.57ZM330.29 351.32H532.585V235.309H330.29V351.32Z" fill="#E0E0E0"/>
<path d="M491.586 297.251H356.468V301.212H491.586V297.251Z" fill="#F0F0F0"/>
<path d="M500.895 312.021H356.468V316.344H500.895V312.021Z" fill="#F0F0F0"/>
<path d="M500.895 326.966H356.468V331.289H500.895V326.966Z" fill="#F0F0F0"/>
<path d="M403.69 275.795H356.468V286.079H403.69V275.795Z" fill="#F0F0F0"/>
<path d="M533.209 234.684H329.702V253.553H533.209V234.684Z" fill="#E0E0E0"/>
<path d="M517.552 250.729C517.29 250.479 519.914 247.317 523.4 243.668C526.886 240.02 529.948 237.258 530.198 237.496C530.448 237.733 527.836 240.907 524.35 244.568C520.863 248.229 517.802 250.979 517.552 250.729Z" fill="white"/>
<path d="M530.223 250.729C529.973 250.979 526.924 248.23 523.425 244.568C519.926 240.907 517.315 237.746 517.577 237.496C517.839 237.246 520.876 239.995 524.375 243.669C527.874 247.342 530.46 250.479 530.223 250.729Z" fill="white"/>
<path d="M281.831 0H78.3239V117.273H281.831V0Z" fill="#E6E6E6"/>
<path d="M240.22 62.579H105.102V66.5402H240.22V62.579Z" fill="#F0F0F0"/>
<path d="M249.529 77.3492H105.102V81.6728H249.529V77.3492Z" fill="#F0F0F0"/>
<path d="M249.529 92.2942H105.102V96.6177H249.529V92.2942Z" fill="#F0F0F0"/>
<path d="M152.324 41.1238H105.102V51.4078H152.324V41.1238Z" fill="#F0F0F0"/>
<path d="M281.831 0H78.3239V18.8687H281.831V0Z" fill="#E0E0E0"/>
<path d="M265.486 15.9571C265.224 15.7197 267.848 12.5458 271.334 8.89697C274.821 5.24819 277.882 2.48662 278.132 2.73654C278.382 2.98645 275.77 6.14789 272.284 9.79667C268.798 13.4455 265.736 16.182 265.486 15.9571Z" fill="white"/>
<path d="M278.132 15.9572C277.882 16.2071 274.833 13.458 271.334 9.79674C267.836 6.13546 265.224 2.98652 265.486 2.7366C265.749 2.48668 268.785 5.23576 272.284 8.89704C275.783 12.5583 278.395 15.7198 278.132 15.9572Z" fill="white"/>
<path d="M204.757 217.852H0V99.3293H204.757V217.852ZM1.24958 216.603H203.507V100.579H1.24958V216.603Z" fill="#E0E0E0"/>
<path d="M162.521 162.533H27.4033V166.494H162.521V162.533Z" fill="#F0F0F0"/>
<path d="M171.83 177.303H27.4033V181.627H171.83V177.303Z" fill="#F0F0F0"/>
<path d="M171.83 192.248H27.4033V196.572H171.83V192.248Z" fill="#F0F0F0"/>
<path d="M74.625 141.078H27.4033V151.362H74.625V141.078Z" fill="#F0F0F0"/>
<path d="M204.132 99.9541H0.624817V118.823H204.132V99.9541Z" fill="#E0E0E0"/>
<path d="M441.065 245.006H200.77V460.134H441.065V245.006Z" fill="#E6E6E6"/>
<path d="M212.854 177.241H24.6167V372.813H212.854V177.241Z" fill="#F0F0F0"/>
<path d="M212.854 177.241H24.6167V198.546H212.854V177.241Z" fill="#E0E0E0"/>
<path d="M40.1616 187.675C40.1273 188.447 39.867 189.193 39.4128 189.819C38.9586 190.445 38.3306 190.924 37.6067 191.196C36.8829 191.468 36.095 191.522 35.3409 191.35C34.5868 191.179 33.8997 190.789 33.3648 190.231C32.83 189.672 32.4709 188.969 32.3322 188.208C32.1935 187.447 32.2812 186.662 32.5845 185.951C32.8879 185.24 33.3934 184.633 34.0384 184.206C34.6835 183.78 35.4396 183.552 36.2129 183.551C37.2824 183.577 38.298 184.026 39.0379 184.798C39.7777 185.571 40.1817 186.605 40.1616 187.675Z" fill="white"/>
<path d="M56.1937 187.675C56.1619 188.451 55.9024 189.201 55.4477 189.831C54.993 190.461 54.3631 190.943 53.6363 191.218C52.9096 191.492 52.1181 191.547 51.3604 191.376C50.6027 191.204 49.9122 190.813 49.3749 190.252C48.8376 189.691 48.4771 188.984 48.3384 188.22C48.1997 187.455 48.2888 186.667 48.5947 185.953C48.9006 185.239 49.4097 184.63 50.0588 184.203C50.7078 183.776 51.4681 183.549 52.2451 183.551C53.3145 183.577 54.3301 184.026 55.07 184.798C55.8099 185.571 56.2139 186.605 56.1937 187.675Z" fill="white"/>
<path d="M72.2258 187.675C72.194 188.451 71.9345 189.201 71.4798 189.831C71.0251 190.461 70.3952 190.943 69.6684 191.218C68.9417 191.492 68.1502 191.547 67.3925 191.376C66.6348 191.204 65.9443 190.813 65.407 190.252C64.8697 189.691 64.5092 188.984 64.3705 188.22C64.2318 187.455 64.3209 186.667 64.6268 185.953C64.9327 185.239 65.4418 184.63 66.0909 184.203C66.74 183.776 67.5002 183.549 68.2772 183.551C69.3466 183.577 70.3622 184.026 71.1021 184.798C71.842 185.571 72.246 186.605 72.2258 187.675Z" fill="white"/>
<path d="M506.956 42.7732H266.661V282.268H506.956V42.7732Z" fill="#F0F0F0"/>
<path d="M506.956 42.7732H266.661V70.8263H506.956V42.7732Z" fill="#E0E0E0"/>
<path d="M287.129 56.5187C287.085 57.5385 286.742 58.523 286.144 59.3498C285.545 60.1766 284.717 60.8094 283.761 61.1695C282.806 61.5296 281.766 61.6013 280.771 61.3755C279.775 61.1498 278.868 60.6366 278.162 59.8997C277.455 59.1628 276.981 58.2346 276.797 57.2304C276.614 56.2263 276.729 55.1903 277.129 54.2512C277.53 53.3121 278.197 52.5112 279.048 51.948C279.899 51.3847 280.897 51.084 281.918 51.083C283.329 51.1158 284.669 51.7062 285.646 52.7249C286.623 53.7436 287.156 55.1077 287.129 56.5187Z" fill="white"/>
<path d="M306.71 52.8448C307.403 53.5971 307.859 54.5366 308.021 55.5463C308.184 56.5559 308.046 57.5911 307.624 58.5228C307.202 59.4545 306.516 60.2416 305.65 60.7859C304.784 61.3302 303.778 61.6077 302.755 61.5839C301.733 61.56 300.74 61.2358 299.901 60.6517C299.061 60.0676 298.412 59.2494 298.034 58.2991C297.657 57.3487 297.567 56.3082 297.776 55.3072C297.986 54.3062 298.485 53.389 299.212 52.6699C300.231 51.7007 301.592 51.175 302.997 51.2077C304.403 51.2405 305.738 51.8292 306.71 52.8448Z" fill="white"/>
<path d="M329.34 56.5187C329.296 57.5385 328.953 58.523 328.355 59.3498C327.756 60.1766 326.928 60.8094 325.972 61.1695C325.017 61.5296 323.977 61.6013 322.982 61.3755C321.986 61.1498 321.079 60.6366 320.373 59.8997C319.666 59.1628 319.192 58.2346 319.008 57.2304C318.825 56.2263 318.94 55.1903 319.34 54.2512C319.741 53.3121 320.408 52.5112 321.259 51.948C322.11 51.3847 323.108 51.084 324.129 51.083C325.54 51.1158 326.88 51.7062 327.857 52.7249C328.834 53.7436 329.367 55.1077 329.34 56.5187Z" fill="white"/>
<path d="M455.048 523.675C455.048 523.85 368.277 524 261.275 524C154.273 524 67.465 523.85 67.465 523.675C67.465 523.5 154.223 523.35 261.275 523.35C368.327 523.35 455.048 523.513 455.048 523.675Z" fill="#263238"/>
<path d="M370.501 370.701C351.195 357.218 346.822 332.189 347.584 309.684C347.709 305.935 347.297 301.962 349.083 298.675C350.87 295.389 355.044 293.127 358.405 294.702C361.192 296.014 362.404 299.262 363.966 301.949C366.05 305.527 369.104 308.443 372.775 310.359C375.162 311.608 378.124 312.358 380.485 311.059C383.734 309.272 384.109 304.811 384.084 301.062C384.084 294.089 384.043 287.125 383.959 280.169C383.735 276.434 384.114 272.687 385.084 269.073C386.246 265.524 388.833 262.237 392.369 261.238C395.905 260.238 400.316 262.3 401.116 265.949C401.254 267.494 401.291 269.047 401.228 270.597C401.328 272.159 402.053 273.871 403.515 274.346C404.977 274.821 406.502 273.733 407.626 272.634C411.475 268.885 414.099 263.999 416.536 259.176C418.973 254.352 421.359 249.392 424.858 245.281C428.357 241.169 433.193 237.908 438.603 237.596C444.014 237.283 449.65 240.607 450.999 245.855C452.349 251.104 449.287 256.464 446.001 260.725C441.042 267.05 435.196 272.627 428.644 277.282C427.365 277.981 426.345 279.071 425.733 280.394C424.921 282.893 427.282 285.392 429.744 286.179C432.531 287.104 435.555 286.817 438.491 287.167C441.428 287.516 444.551 288.791 445.664 291.54C447.188 295.364 443.989 299.362 440.853 301.987C434.555 307.235 427.404 311.364 419.71 314.195C416.961 315.195 414.074 316.082 411.85 318.006C409.626 319.931 408.301 323.292 409.638 325.929C410.975 328.565 414.412 329.402 417.298 328.865C420.185 328.328 422.746 326.778 425.495 325.741C430.631 323.804 437.254 324.154 440.49 328.59C441.493 330.118 442.128 331.858 442.344 333.673C442.561 335.488 442.354 337.328 441.74 339.049C440.489 342.475 438.564 345.615 436.079 348.284C427.895 358.062 417.261 365.492 405.265 369.814C393.356 373.938 382.322 375.062 370.489 370.726" fill="#407BFF"/>
<path d="M445.501 240.682C445.501 240.682 445.389 240.807 445.139 241.032L444.027 242.019C443.052 242.894 441.615 244.168 439.803 245.855C434.666 250.625 429.896 255.776 425.533 261.263C422.746 264.724 419.86 268.648 416.786 272.909C413.712 277.17 410.538 281.768 407.389 286.654C404.032 291.806 400.957 297.137 398.18 302.624C396.73 305.485 395.455 308.472 394.143 311.521L390.27 320.83C385.164 332.556 380.716 344.559 376.949 356.781C373.915 366.781 371.823 377.043 370.701 387.433C369.974 394.445 369.857 401.506 370.351 408.538C370.551 411.038 370.739 412.949 370.914 414.249C370.989 414.874 371.039 415.374 371.089 415.736V416.248C371.035 416.086 370.997 415.918 370.976 415.749C370.914 415.386 370.839 414.899 370.739 414.274C370.514 413.024 370.276 411.05 370.051 408.551C369.449 401.506 369.49 394.42 370.176 387.383C371.228 376.949 373.274 366.639 376.287 356.593C380.023 344.337 384.458 332.304 389.57 320.555L393.544 311.283C394.856 308.247 396.143 305.235 397.605 302.361C400.402 296.859 403.501 291.515 406.889 286.354C410.088 281.356 413.312 276.832 416.348 272.609C419.385 268.385 422.321 264.437 425.096 260.988C429.503 255.515 434.337 250.401 439.553 245.693C441.403 244.031 442.877 242.781 443.877 241.944L445.039 241.007C445.181 240.883 445.336 240.774 445.501 240.682Z" fill="#263238"/>
<path d="M397.767 302.336C397.591 301.822 397.469 301.29 397.405 300.749C397.205 299.712 396.98 298.25 396.717 296.351C396.18 292.602 395.63 287.466 395.043 281.781C394.456 276.095 393.793 270.947 393.244 267.236C392.956 265.386 392.706 263.899 392.531 262.862C392.395 262.331 392.324 261.786 392.319 261.238C392.534 261.738 392.689 262.263 392.781 262.8C393.056 263.824 393.369 265.299 393.718 267.161C394.431 270.909 395.13 276.008 395.718 281.706C396.305 287.404 396.805 292.402 397.192 296.288C397.38 298.038 397.542 299.525 397.667 300.712C397.764 301.248 397.798 301.793 397.767 302.336Z" fill="#263238"/>
<path d="M445.851 293.365C445.243 293.497 444.624 293.572 444.002 293.589C442.752 293.702 440.978 293.852 438.778 294.102C434.38 294.577 428.332 295.451 421.697 296.701C415.061 297.95 409.101 299.363 404.815 300.45C402.678 300.999 400.954 301.499 399.817 301.837C399.209 302.052 398.581 302.203 397.942 302.287C398.52 301.996 399.122 301.758 399.742 301.574C400.916 301.162 402.616 300.587 404.74 299.975C409.001 298.725 414.961 297.238 421.622 295.964C427.264 294.885 432.956 294.092 438.678 293.589C440.89 293.402 442.677 293.327 443.927 293.302C444.569 293.258 445.213 293.279 445.851 293.365Z" fill="#263238"/>
<path d="M376.899 355.719C376.766 355.538 376.657 355.34 376.574 355.131L375.749 353.394C375.037 351.882 374.075 349.646 372.925 346.909C370.601 341.411 367.64 333.713 364.491 325.166C361.342 316.619 358.443 308.922 356.243 303.361C355.169 300.662 354.282 298.45 353.619 296.801L352.92 295.014C352.823 294.808 352.755 294.589 352.72 294.364C352.853 294.545 352.962 294.742 353.044 294.951L353.869 296.688C354.569 298.2 355.544 300.437 356.693 303.174C359.017 308.672 361.979 316.369 365.128 324.916C368.277 333.464 371.176 341.161 373.375 346.722C374.45 349.421 375.337 351.632 375.987 353.282C376.274 353.994 376.512 354.532 376.699 355.069C376.796 355.275 376.863 355.494 376.899 355.719Z" fill="#263238"/>
<path d="M440.728 335.138C440.528 335.253 440.313 335.341 440.09 335.4L438.241 336.025L431.406 338.237C425.633 340.111 417.66 342.786 408.913 345.735C400.166 348.684 392.156 351.308 386.346 353.057C383.447 353.944 381.085 354.619 379.448 355.069L377.561 355.556C377.342 355.626 377.116 355.672 376.887 355.694C377.087 355.579 377.301 355.491 377.524 355.431L379.373 354.806L386.208 352.595C391.982 350.72 399.954 348.046 408.701 345.097C417.448 342.148 425.445 339.524 431.256 337.775C434.167 336.887 436.517 336.213 438.166 335.763L440.053 335.275C440.272 335.206 440.499 335.16 440.728 335.138Z" fill="#263238"/>
<path d="M414.686 32.0269L408.251 34.3261L405.49 25.9164C400.416 10.4091 384.247 2.17434 369.389 7.41009C354.532 12.6458 346.622 29.6527 351.695 45.16L354.457 53.5697L347.996 55.8814C345.533 56.8369 343.532 58.705 342.411 61.0973C341.289 63.4897 341.132 66.2223 341.973 68.7271L359.88 123.446C360.251 124.686 360.869 125.839 361.695 126.836C362.521 127.832 363.538 128.653 364.688 129.249C365.837 129.844 367.094 130.203 368.385 130.303C369.676 130.403 370.973 130.243 372.201 129.832L438.891 105.977C441.387 105.023 443.416 103.139 444.551 100.72C445.686 98.3006 445.838 95.5357 444.976 93.0065L427.057 38.2873C426.676 37.0508 426.049 35.9037 425.215 34.9146C424.381 33.9256 423.356 33.1147 422.201 32.5304C421.047 31.9461 419.786 31.6004 418.495 31.5139C417.204 31.4274 415.909 31.6018 414.686 32.0269ZM363.853 40.7739C362.485 36.7418 362.731 32.3367 364.539 28.4816C366.346 24.6265 369.576 21.6205 373.55 20.0934C375.513 19.4219 377.591 19.1526 379.659 19.3016C381.728 19.4506 383.746 20.0149 385.592 20.9607C387.438 21.9065 389.075 23.2144 390.405 24.8066C391.734 26.3987 392.73 28.2423 393.331 30.2275L396.08 38.6372L366.603 49.1836L363.853 40.7739ZM401.341 89.3327L405.914 103.303C405.998 103.583 405.971 103.885 405.839 104.146C405.706 104.406 405.478 104.606 405.202 104.703L398.792 106.989C398.537 107.06 398.264 107.029 398.031 106.904C397.798 106.778 397.623 106.567 397.542 106.315L392.931 92.4067C390.389 92.2682 387.949 91.3562 385.939 89.793C383.929 88.2297 382.445 86.0898 381.685 83.6596C380.598 80.4469 380.796 76.9382 382.238 73.8683C383.68 70.7984 386.253 68.4053 389.42 67.1901C390.983 66.656 392.638 66.442 394.286 66.561C395.934 66.6801 397.541 67.1296 399.011 67.8829C400.482 68.6362 401.785 69.6777 402.845 70.9456C403.904 72.2134 404.697 73.6815 405.177 75.2624C405.981 77.731 406.048 80.3805 405.368 82.8863C404.689 85.3922 403.294 87.6455 401.353 89.3702L401.341 89.3327Z" fill="#407BFF"/>
<path d="M407.964 34.1762C407.964 34.3511 396.03 38.8371 381.185 44.1729C366.34 49.5086 354.232 53.7946 354.169 53.6697C354.107 53.5447 366.103 49.0212 380.96 43.673C395.818 38.3248 407.901 34.0138 407.964 34.1762Z" fill="#263238"/>
<path d="M422.134 36.4752C422.189 36.5837 422.235 36.6965 422.271 36.8126C422.371 37.0625 422.484 37.3874 422.634 37.7873C422.959 38.6995 423.409 39.9616 423.971 41.536L428.769 55.5064C430.769 61.4294 433.155 68.452 435.804 76.2494C437.054 80.1606 438.529 84.2343 439.903 88.5203C440.639 90.729 440.957 93.0554 440.84 95.3805C440.734 96.5897 440.39 97.7661 439.828 98.8419C439.228 99.9141 438.426 100.86 437.466 101.628C435.536 103.038 433.393 104.13 431.118 104.865L424.683 107.177L412.5 111.538L391.869 118.885L377.936 123.784L374.188 125.033L373.188 125.358C373.081 125.406 372.967 125.435 372.85 125.445C372.85 125.445 372.95 125.445 373.163 125.296L374.138 124.908L377.886 123.496L391.744 118.398L412.337 110.9L424.496 106.502L430.931 104.178C433.141 103.473 435.222 102.414 437.091 101.041C437.984 100.328 438.731 99.4501 439.291 98.4545C439.82 97.4596 440.139 96.3665 440.228 95.2431C440.343 93.0028 440.038 90.7608 439.328 88.6328C437.979 84.3842 436.554 80.2731 435.267 76.3619C432.668 68.552 430.269 61.5044 428.369 55.5813C426.47 49.6583 424.871 44.8974 423.771 41.5485C423.246 39.9116 422.846 38.637 422.521 37.7123L422.221 36.7126C422.184 36.6369 422.154 36.5573 422.134 36.4752Z" fill="#263238"/>
<path d="M386.946 19.2436C386.946 19.2436 386.283 18.9187 385.059 18.4189C383.313 17.7482 381.467 17.3765 379.598 17.3193C376.828 17.2243 374.071 17.745 371.526 18.8438C368.431 20.212 365.785 22.4252 363.891 25.2291C361.984 28.0251 360.961 31.3293 360.954 34.7135C360.98 37.4872 361.401 40.2431 362.204 42.8982C362.854 45.1725 363.528 46.9844 363.978 48.2465C364.244 48.8875 364.461 49.5474 364.628 50.2208C364.273 49.6214 363.976 48.9896 363.741 48.3339C363.229 47.0843 362.491 45.3099 361.767 43.0232C360.877 40.3402 360.393 37.5394 360.33 34.7135C360.296 31.2014 361.343 27.764 363.328 24.8668C365.289 21.9604 368.043 19.6788 371.263 18.294C373.888 17.1891 376.731 16.7017 379.573 16.8694C381.483 16.9667 383.359 17.4114 385.109 18.1815C385.577 18.3974 386.028 18.648 386.458 18.9312C386.636 19.0093 386.8 19.1147 386.946 19.2436Z" fill="#263238"/>
<path d="M387.52 68.1396C387.72 68.0188 387.929 67.9143 388.145 67.8272C388.771 67.545 389.419 67.3151 390.082 67.14C391.135 66.8291 392.222 66.6445 393.319 66.5902C394.81 66.51 396.303 66.7353 397.705 67.2524C400.904 68.3771 403.84 71.6385 405.29 75.9995C405.985 78.3399 405.985 80.8318 405.29 83.1721C404.519 85.7122 403.137 88.0247 401.266 89.9074L401.341 89.57C403.003 94.131 404.815 99.0793 406.689 104.24L406.802 104.552L406.489 104.665L403.628 105.615L397.38 107.701L397.067 107.801L396.967 107.489C395.255 102.316 393.381 97.4923 391.969 92.7564L392.244 92.9688C389.801 92.7659 387.472 91.849 385.546 90.3322C383.804 88.9904 382.375 87.2846 381.36 85.3339C380.444 83.604 379.988 81.6677 380.035 79.7108C380.093 77.7107 380.593 75.7483 381.498 73.9639C382.403 72.1794 383.692 70.6173 385.271 69.3892C385.921 68.8614 386.651 68.4397 387.433 68.1396C386.727 68.5584 386.043 69.013 385.384 69.5017C383.648 70.9698 382.319 72.8586 381.522 74.9873C380.839 76.5926 380.519 78.3293 380.586 80.0728C380.653 81.8163 381.105 83.5234 381.91 85.0715C382.908 86.9481 384.302 88.5853 385.996 89.8699C387.833 91.3116 390.054 92.1808 392.381 92.369H392.594L392.656 92.5565C394.031 97.2049 395.918 102.066 397.655 107.264L397.242 107.064L403.49 104.977L406.339 104.015L406.139 104.44C404.277 99.2792 402.478 94.3184 400.829 89.7574V89.57L400.979 89.42C402.795 87.6155 404.15 85.3994 404.927 82.9597C405.59 80.721 405.59 78.3382 404.927 76.0995C403.565 71.9009 400.754 68.7144 397.705 67.5898C396.355 67.0694 394.914 66.8271 393.469 66.8776C392.389 66.9023 391.316 67.049 390.27 67.3149C388.408 67.7773 387.533 68.2021 387.52 68.1396Z" fill="#263238"/>
<path d="M348.896 428.944L224.075 428.369C216.867 428.33 209.969 425.431 204.896 420.309C199.824 415.188 196.992 408.262 197.022 401.054L198.346 88.1456C198.361 84.5744 199.079 81.0411 200.46 77.7476C201.841 74.4542 203.858 71.4653 206.395 68.9516C208.932 66.438 211.939 64.4489 215.245 63.0982C218.551 61.7475 222.091 61.0616 225.662 61.0797L350.47 61.6545C357.679 61.6909 364.578 64.5867 369.653 69.706C374.727 74.8253 377.563 81.7495 377.536 88.9579L376.212 401.853C376.197 405.426 375.479 408.96 374.098 412.255C372.717 415.55 370.701 418.541 368.165 421.056C365.628 423.572 362.621 425.563 359.315 426.917C356.009 428.27 352.468 428.959 348.896 428.944Z" fill="#455A64"/>
<path d="M350.283 72.4134H326.091C325.302 72.428 324.523 72.598 323.799 72.9136C323.076 73.2293 322.421 73.6844 321.874 74.253C321.326 74.8216 320.895 75.4925 320.607 76.2275C320.319 76.9624 320.178 77.747 320.193 78.5363V82.9223C320.208 83.7111 320.067 84.495 319.778 85.2292C319.49 85.9635 319.059 86.6336 318.512 87.2012C317.964 87.7688 317.309 88.2227 316.586 88.537C315.862 88.8513 315.084 89.0198 314.295 89.0328L267.136 88.8204C265.54 88.7778 264.027 88.1039 262.928 86.9465C261.829 85.7891 261.235 84.2429 261.275 82.6474V78.2614C261.315 76.6681 260.723 75.1237 259.626 73.9667C258.53 72.8096 257.02 72.1342 255.427 72.0885H246.917L225.737 71.9885C220.699 71.9585 215.855 73.926 212.264 77.4601C208.674 80.9942 206.63 85.807 206.581 90.8447L205.331 396.268C205.32 398.767 205.801 401.244 206.746 403.557C207.692 405.871 209.084 407.975 210.844 409.75C212.603 411.526 214.694 412.937 216.999 413.904C219.303 414.871 221.776 415.375 224.275 415.386L348.833 415.961C351.334 415.973 353.813 415.491 356.128 414.545C358.443 413.599 360.548 412.205 362.325 410.445C364.101 408.685 365.514 406.592 366.481 404.286C367.449 401.98 367.953 399.506 367.964 397.005L369.214 91.5819C369.244 86.5301 367.267 81.673 363.717 78.0786C360.167 74.4841 355.335 72.4464 350.283 72.4134Z" fill="white"/>
<path d="M333.526 375.212L240.907 374.812C239.945 374.812 239.17 373.763 239.183 372.488L239.283 348.259C239.283 347.009 240.07 345.934 241.032 345.934L333.651 346.359C334.184 346.451 334.661 346.746 334.982 347.181C335.304 347.617 335.445 348.159 335.375 348.696L335.288 372.9C335.288 374.187 334.488 375.225 333.526 375.212Z" fill="#407BFF"/>
<path d="M269.999 356.698C269.964 356.405 269.824 356.178 269.577 356.017C269.331 355.855 269.029 355.774 268.67 355.774C268.409 355.774 268.18 355.816 267.983 355.901C267.789 355.986 267.637 356.102 267.527 356.25C267.419 356.399 267.365 356.567 267.365 356.756C267.365 356.914 267.403 357.049 267.478 357.163C267.555 357.275 267.653 357.368 267.772 357.443C267.892 357.516 268.017 357.577 268.148 357.625C268.279 357.671 268.399 357.709 268.509 357.738L269.109 357.899C269.263 357.94 269.435 357.996 269.623 358.067C269.814 358.138 269.996 358.235 270.169 358.358C270.344 358.48 270.489 358.636 270.602 358.826C270.716 359.017 270.773 359.251 270.773 359.528C270.773 359.847 270.689 360.136 270.521 360.394C270.356 360.652 270.113 360.857 269.794 361.009C269.476 361.161 269.09 361.237 268.636 361.237C268.212 361.237 267.846 361.169 267.536 361.032C267.228 360.896 266.985 360.705 266.808 360.461C266.633 360.216 266.534 359.932 266.511 359.609H267.25C267.269 359.832 267.344 360.017 267.475 360.163C267.608 360.307 267.775 360.415 267.977 360.486C268.182 360.556 268.401 360.59 268.636 360.59C268.909 360.59 269.155 360.546 269.372 360.458C269.59 360.367 269.762 360.242 269.889 360.082C270.016 359.921 270.08 359.732 270.08 359.516C270.08 359.32 270.025 359.16 269.915 359.037C269.805 358.914 269.661 358.814 269.482 358.737C269.303 358.66 269.109 358.592 268.901 358.535L268.174 358.327C267.712 358.194 267.346 358.004 267.077 357.758C266.807 357.511 266.672 357.189 266.672 356.79C266.672 356.459 266.762 356.171 266.941 355.924C267.122 355.676 267.364 355.483 267.668 355.347C267.975 355.208 268.316 355.139 268.694 355.139C269.075 355.139 269.414 355.207 269.71 355.344C270.006 355.479 270.241 355.663 270.415 355.898C270.59 356.133 270.682 356.4 270.692 356.698H269.999ZM272.666 355.22V361.133H271.95V355.22H272.666ZM278.791 355.22V361.133H278.098L274.876 356.49H274.818V361.133H274.102V355.22H274.795L278.029 359.874H278.087V355.22H278.791ZM284.267 357.068C284.203 356.873 284.119 356.699 284.016 356.545C283.913 356.389 283.791 356.256 283.649 356.147C283.508 356.037 283.349 355.953 283.169 355.895C282.99 355.838 282.794 355.809 282.58 355.809C282.23 355.809 281.911 355.899 281.625 356.08C281.338 356.261 281.11 356.528 280.94 356.88C280.771 357.232 280.686 357.664 280.686 358.176C280.686 358.689 280.772 359.121 280.943 359.473C281.115 359.825 281.346 360.092 281.639 360.273C281.932 360.454 282.261 360.544 282.627 360.544C282.965 360.544 283.264 360.472 283.522 360.328C283.782 360.181 283.984 359.975 284.128 359.71C284.274 359.442 284.348 359.127 284.348 358.766L284.567 358.812H282.788V358.176H285.041V358.812C285.041 359.299 284.937 359.722 284.729 360.082C284.523 360.442 284.238 360.721 283.874 360.92C283.512 361.116 283.096 361.214 282.627 361.214C282.103 361.214 281.643 361.091 281.246 360.845C280.852 360.598 280.544 360.248 280.322 359.793C280.103 359.339 279.993 358.8 279.993 358.176C279.993 357.709 280.056 357.288 280.181 356.915C280.308 356.539 280.487 356.22 280.718 355.956C280.949 355.692 281.222 355.49 281.538 355.35C281.854 355.209 282.201 355.139 282.58 355.139C282.892 355.139 283.183 355.186 283.452 355.28C283.724 355.373 283.965 355.505 284.177 355.676C284.391 355.845 284.569 356.048 284.711 356.285C284.854 356.52 284.952 356.781 285.006 357.068H284.267ZM292.435 355.22H293.151V359.135C293.151 359.539 293.056 359.9 292.865 360.218C292.676 360.534 292.41 360.783 292.065 360.966C291.721 361.147 291.316 361.237 290.852 361.237C290.389 361.237 289.984 361.147 289.64 360.966C289.295 360.783 289.028 360.534 288.837 360.218C288.648 359.9 288.554 359.539 288.554 359.135V355.22H289.27V359.077C289.27 359.366 289.334 359.623 289.461 359.848C289.588 360.072 289.769 360.248 290.004 360.377C290.24 360.504 290.523 360.567 290.852 360.567C291.182 360.567 291.465 360.504 291.701 360.377C291.938 360.248 292.119 360.072 292.244 359.848C292.371 359.623 292.435 359.366 292.435 359.077V355.22ZM294.581 361.133V355.22H296.579C297.043 355.22 297.422 355.303 297.717 355.471C298.013 355.636 298.233 355.861 298.375 356.144C298.518 356.427 298.589 356.742 298.589 357.091C298.589 357.439 298.518 357.756 298.375 358.041C298.235 358.326 298.017 358.553 297.723 358.722C297.428 358.89 297.051 358.973 296.591 358.973H295.159V358.338H296.568C296.885 358.338 297.14 358.283 297.333 358.174C297.525 358.064 297.665 357.916 297.752 357.729C297.84 357.54 297.884 357.328 297.884 357.091C297.884 356.854 297.84 356.642 297.752 356.456C297.665 356.269 297.524 356.122 297.33 356.017C297.135 355.909 296.878 355.855 296.556 355.855H295.297V361.133H294.581Z" fill="#E8E8E3"/>
<path d="M259.381 162.196L227.242 162.05L227.215 167.948L259.354 168.094L259.381 162.196Z" fill="#407BFF"/>
<path opacity="0.1" d="M259.381 162.196L227.242 162.05L227.215 167.948L259.354 168.094L259.381 162.196Z" fill="black"/>
<path d="M353.594 198.409C353.847 198.383 354.095 198.324 354.332 198.234C354.678 198.099 354.978 197.869 355.199 197.57C355.42 197.272 355.553 196.917 355.581 196.547C355.581 194.56 355.581 191.661 355.581 187.937C355.581 186.075 355.581 183.988 355.581 181.689C355.581 181.127 355.581 180.54 355.581 179.952C355.663 179.382 355.539 178.802 355.231 178.315C355.059 178.082 354.836 177.892 354.578 177.759C354.319 177.627 354.034 177.557 353.744 177.553H351.795H333.739L229.223 177.166C228.956 177.161 228.691 177.221 228.452 177.341C228.213 177.461 228.006 177.636 227.849 177.853C227.547 178.342 227.432 178.923 227.524 179.49C227.524 180.74 227.524 181.989 227.524 183.239C227.524 185.738 227.524 188.237 227.524 190.736C227.524 191.986 227.524 193.235 227.524 194.485C227.472 195.067 227.472 195.652 227.524 196.234C227.59 196.484 227.712 196.715 227.881 196.91C228.05 197.105 228.261 197.259 228.499 197.359C228.745 197.457 229.009 197.504 229.273 197.496H235.634L263.387 197.646L310.371 197.934L342.048 198.184L350.658 198.284H352.895C353.407 198.284 353.657 198.284 353.657 198.284H352.895H350.658H342.048H310.371L263.387 198.134L235.634 198.021H229.273C228.923 198.035 228.574 197.976 228.249 197.846C227.92 197.706 227.627 197.492 227.393 197.222C227.159 196.951 226.99 196.63 226.899 196.284C226.827 195.956 226.802 195.62 226.824 195.285V194.36C226.824 193.11 226.824 191.861 226.824 190.611C226.824 188.112 226.824 185.613 226.824 183.114C226.824 181.864 226.824 180.615 226.824 179.365C226.8 179.032 226.8 178.698 226.824 178.365C226.871 177.998 227.013 177.649 227.237 177.353C227.452 177.052 227.738 176.807 228.068 176.639C228.399 176.471 228.765 176.386 229.136 176.391L333.651 176.966L351.708 177.091H353.657C354 177.091 354.339 177.174 354.643 177.333C354.948 177.492 355.209 177.722 355.406 178.003C355.759 178.546 355.901 179.199 355.806 179.84C355.806 180.427 355.806 181.014 355.806 181.577C355.806 183.851 355.806 185.938 355.806 187.825C355.806 191.573 355.719 194.447 355.694 196.447C355.663 196.831 355.523 197.199 355.291 197.507C355.059 197.814 354.743 198.049 354.382 198.184C354.145 198.33 353.873 198.408 353.594 198.409Z" fill="#E0E0E0"/>
<path d="M295.676 183.439H236.896V188.949H295.676V183.439Z" fill="#407BFF"/>
<path opacity="0.2" d="M295.676 183.439H236.896V188.949H295.676V183.439Z" fill="white"/>
<path d="M259.162 216.002L227.023 215.856L226.996 221.754L259.135 221.9L259.162 216.002Z" fill="#407BFF"/>
<path opacity="0.1" d="M259.162 216.002L227.023 215.856L226.996 221.754L259.135 221.9L259.162 216.002Z" fill="black"/>
<path d="M352.782 252.216C353.035 252.185 353.285 252.139 353.532 252.078C353.881 251.967 354.202 251.782 354.474 251.537C354.745 251.291 354.961 250.99 355.106 250.654C355.303 250.149 355.38 249.606 355.331 249.067C355.331 248.467 355.331 247.817 355.331 247.092C355.331 245.643 355.331 243.993 355.331 242.094V234.159C355.391 233.585 355.264 233.006 354.969 232.51C354.661 232 354.176 231.622 353.607 231.448C352.984 231.337 352.351 231.303 351.72 231.348H333.738L229.586 230.96C229.026 230.962 228.485 231.166 228.064 231.536C227.644 231.906 227.372 232.417 227.299 232.972C227.299 234.159 227.299 235.471 227.299 236.721C227.299 239.22 227.299 241.719 227.299 244.218C227.299 245.468 227.299 246.717 227.299 247.967C227.253 248.551 227.278 249.139 227.374 249.716C227.53 250.223 227.851 250.663 228.286 250.966C228.748 251.259 229.29 251.399 229.836 251.366H231.573H235.184L262.837 251.503L309.659 251.791L341.223 252.041L349.808 252.141H341.223H309.659L262.812 252.091L235.159 251.991H229.723C229.047 252.031 228.377 251.851 227.811 251.478C227.243 251.085 226.828 250.506 226.637 249.841C226.525 249.206 226.491 248.56 226.537 247.917C226.537 246.667 226.537 245.418 226.537 244.168C226.537 241.669 226.537 239.17 226.537 236.671C226.537 235.421 226.537 234.172 226.537 232.922C226.628 232.208 226.976 231.551 227.517 231.075C228.057 230.599 228.753 230.336 229.473 230.335L333.626 230.91L351.608 231.048C352.277 231.007 352.949 231.053 353.607 231.185C354.256 231.397 354.804 231.842 355.144 232.435C355.467 232.985 355.607 233.624 355.544 234.259C355.544 234.846 355.544 235.421 355.544 235.996C355.544 238.258 355.544 240.332 355.544 242.244C355.544 244.156 355.544 245.768 355.544 247.242C355.544 247.955 355.544 248.617 355.544 249.229C355.589 249.788 355.499 250.349 355.281 250.866C355.119 251.211 354.884 251.517 354.593 251.762C354.302 252.008 353.961 252.188 353.594 252.291C353.321 252.313 353.046 252.288 352.782 252.216Z" fill="#E0E0E0"/>
<path d="M258.92 272.144L226.781 271.998L226.754 277.896L258.893 278.042L258.92 272.144Z" fill="#407BFF"/>
<path opacity="0.1" d="M258.92 272.144L226.781 271.998L226.754 277.896L258.893 278.042L258.92 272.144Z" fill="black"/>
<path d="M352.532 308.334C352.785 308.305 353.035 308.259 353.282 308.197C353.629 308.086 353.949 307.904 354.221 307.66C354.492 307.417 354.709 307.118 354.856 306.785C355.052 306.28 355.129 305.737 355.081 305.198C355.081 304.586 355.081 303.948 355.081 303.211C355.081 301.774 355.081 300.112 355.081 298.213V290.278C355.141 289.703 355.014 289.125 354.719 288.628C354.403 288.128 353.921 287.757 353.357 287.579C352.735 287.463 352.101 287.426 351.47 287.466H333.489L229.336 287.079C228.776 287.08 228.235 287.285 227.814 287.655C227.394 288.025 227.122 288.535 227.049 289.091C227.049 290.34 227.049 291.59 227.049 292.84C227.049 295.339 227.049 297.838 227.049 300.337C227.049 301.587 227.049 302.836 227.049 304.086C227.003 304.666 227.028 305.249 227.124 305.823C227.274 306.333 227.596 306.774 228.036 307.072C228.495 307.372 229.039 307.512 229.586 307.472H235.021L262.675 307.622L309.497 307.91L341.061 308.159L349.646 308.259H341.061H309.497L262.675 308.122L235.021 308.009H229.586C228.909 308.055 228.237 307.875 227.674 307.497C227.105 307.103 226.69 306.525 226.499 305.86C226.387 305.225 226.354 304.579 226.399 303.936C226.399 302.686 226.399 301.437 226.399 300.187C226.399 297.688 226.399 295.189 226.399 292.69C226.399 291.44 226.399 290.19 226.399 288.878C226.488 288.165 226.834 287.508 227.372 287.032C227.911 286.556 228.604 286.292 229.323 286.292L333.476 286.867L351.458 287.004C352.127 286.963 352.799 287.009 353.457 287.141C354.106 287.354 354.654 287.799 354.994 288.391C355.317 288.941 355.457 289.58 355.394 290.215C355.394 290.803 355.394 291.39 355.394 291.952C355.394 294.214 355.394 296.288 355.394 298.2C355.394 300.112 355.394 301.724 355.394 303.199C355.394 303.911 355.394 304.573 355.394 305.185C355.442 305.744 355.352 306.306 355.131 306.822C354.969 307.167 354.734 307.473 354.443 307.719C354.152 307.965 353.812 308.145 353.444 308.247C353.151 308.347 352.839 308.377 352.532 308.334Z" fill="#E0E0E0"/>
<path d="M294.421 238.804L235.642 238.537L235.617 244.048L294.396 244.314L294.421 238.804Z" fill="#407BFF"/>
<path opacity="0.2" d="M294.421 238.804L235.642 238.537L235.617 244.048L294.396 244.314L294.421 238.804Z" fill="white"/>
<path d="M240.957 298.138C240.92 298.641 240.737 299.121 240.429 299.521C240.121 299.92 239.703 300.22 239.227 300.384C238.75 300.548 238.236 300.568 237.748 300.442C237.26 300.317 236.819 300.051 236.481 299.677C236.143 299.303 235.922 298.838 235.845 298.34C235.769 297.842 235.84 297.333 236.051 296.875C236.261 296.417 236.602 296.031 237.03 295.764C237.457 295.498 237.954 295.363 238.458 295.376C239.154 295.415 239.807 295.727 240.275 296.244C240.743 296.761 240.988 297.441 240.957 298.138Z" fill="#407BFF"/>
<path d="M248.917 298.175C248.941 298.528 248.893 298.881 248.775 299.214C248.657 299.547 248.472 299.852 248.231 300.11C247.991 300.369 247.699 300.574 247.375 300.715C247.051 300.856 246.702 300.929 246.349 300.929C245.996 300.929 245.646 300.856 245.323 300.715C244.999 300.574 244.707 300.369 244.466 300.11C244.226 299.852 244.04 299.547 243.923 299.214C243.805 298.881 243.756 298.528 243.781 298.175C243.756 297.823 243.805 297.47 243.923 297.137C244.04 296.804 244.226 296.499 244.466 296.24C244.707 295.982 244.999 295.776 245.323 295.635C245.646 295.495 245.996 295.422 246.349 295.422C246.702 295.422 247.051 295.495 247.375 295.635C247.699 295.776 247.991 295.982 248.231 296.24C248.472 296.499 248.657 296.804 248.775 297.137C248.893 297.47 248.941 297.823 248.917 298.175Z" fill="#407BFF"/>
<path d="M256.889 298.213C256.852 298.715 256.669 299.196 256.361 299.595C256.054 299.995 255.636 300.295 255.159 300.459C254.682 300.623 254.168 300.643 253.68 300.517C253.192 300.392 252.752 300.125 252.413 299.752C252.075 299.378 251.854 298.913 251.778 298.415C251.701 297.917 251.773 297.407 251.983 296.949C252.194 296.491 252.534 296.105 252.962 295.839C253.39 295.573 253.886 295.438 254.39 295.451C255.085 295.493 255.736 295.806 256.203 296.322C256.67 296.838 256.917 297.517 256.889 298.213Z" fill="#407BFF"/>
<path d="M264.849 298.25C264.812 298.753 264.629 299.234 264.321 299.633C264.013 300.032 263.595 300.332 263.119 300.496C262.642 300.66 262.128 300.68 261.64 300.555C261.152 300.429 260.711 300.163 260.373 299.789C260.035 299.416 259.814 298.951 259.737 298.453C259.661 297.954 259.732 297.445 259.943 296.987C260.153 296.529 260.494 296.143 260.922 295.877C261.349 295.61 261.846 295.475 262.35 295.489C263.045 295.531 263.696 295.843 264.163 296.36C264.63 296.876 264.876 297.555 264.849 298.25Z" fill="#407BFF"/>
<path d="M272.809 298.275C272.774 298.779 272.593 299.261 272.287 299.662C271.98 300.063 271.563 300.365 271.086 300.531C270.61 300.696 270.095 300.718 269.606 300.594C269.117 300.47 268.675 300.204 268.336 299.831C267.997 299.458 267.774 298.993 267.697 298.494C267.62 297.996 267.691 297.485 267.901 297.027C268.111 296.568 268.452 296.181 268.88 295.914C269.308 295.648 269.805 295.513 270.31 295.526C271.002 295.568 271.651 295.879 272.118 296.393C272.585 296.906 272.833 297.582 272.809 298.275Z" fill="#407BFF"/>
<path d="M280.781 298.313C280.747 298.814 280.567 299.293 280.264 299.693C279.961 300.093 279.547 300.396 279.074 300.564C278.601 300.732 278.089 300.758 277.602 300.638C277.114 300.519 276.672 300.26 276.33 299.893C275.988 299.526 275.76 299.066 275.676 298.571C275.591 298.077 275.653 297.568 275.854 297.108C276.055 296.648 276.386 296.257 276.806 295.982C277.226 295.708 277.718 295.562 278.22 295.564C278.923 295.59 279.588 295.894 280.068 296.409C280.549 296.924 280.805 297.609 280.781 298.313Z" fill="#407BFF"/>
<path d="M288.741 298.35C288.766 298.703 288.718 299.056 288.6 299.389C288.482 299.722 288.297 300.027 288.056 300.285C287.815 300.543 287.523 300.749 287.2 300.89C286.876 301.031 286.526 301.104 286.173 301.104C285.82 301.104 285.471 301.031 285.147 300.89C284.823 300.749 284.532 300.543 284.291 300.285C284.05 300.027 283.865 299.722 283.747 299.389C283.629 299.056 283.581 298.703 283.605 298.35C283.581 297.998 283.629 297.644 283.747 297.312C283.865 296.979 284.05 296.674 284.291 296.415C284.532 296.157 284.823 295.951 285.147 295.81C285.471 295.67 285.82 295.597 286.173 295.597C286.526 295.597 286.876 295.67 287.2 295.81C287.523 295.951 287.815 296.157 288.056 296.415C288.297 296.674 288.482 296.979 288.6 297.312C288.718 297.644 288.766 297.998 288.741 298.35Z" fill="#407BFF"/>
<path d="M296.701 298.388C296.667 298.889 296.487 299.369 296.184 299.768C295.88 300.168 295.467 300.471 294.994 300.639C294.521 300.807 294.009 300.833 293.521 300.713C293.034 300.594 292.592 300.335 292.249 299.968C291.907 299.601 291.68 299.141 291.595 298.647C291.511 298.152 291.573 297.643 291.774 297.183C291.974 296.723 292.305 296.332 292.726 296.057C293.146 295.783 293.637 295.638 294.139 295.639C294.843 295.665 295.508 295.969 295.988 296.484C296.468 296.999 296.725 297.684 296.701 298.388Z" fill="#407BFF"/>
<path d="M304.661 298.425C304.626 298.929 304.445 299.411 304.138 299.812C303.832 300.213 303.415 300.515 302.938 300.681C302.462 300.846 301.947 300.869 301.458 300.744C300.969 300.62 300.527 300.354 300.188 299.981C299.849 299.608 299.626 299.143 299.549 298.644C299.472 298.146 299.542 297.635 299.753 297.177C299.963 296.718 300.303 296.331 300.732 296.064C301.16 295.798 301.657 295.663 302.162 295.676C302.854 295.718 303.503 296.029 303.97 296.543C304.437 297.056 304.685 297.732 304.661 298.425Z" fill="#407BFF"/>
<g opacity="0.2">
<path d="M240.957 298.138C240.92 298.641 240.737 299.121 240.429 299.521C240.121 299.92 239.703 300.22 239.227 300.384C238.75 300.548 238.236 300.568 237.748 300.442C237.26 300.317 236.819 300.051 236.481 299.677C236.143 299.303 235.922 298.838 235.845 298.34C235.769 297.842 235.84 297.333 236.051 296.875C236.261 296.417 236.602 296.031 237.03 295.764C237.457 295.498 237.954 295.363 238.458 295.376C239.154 295.415 239.807 295.727 240.275 296.244C240.743 296.761 240.988 297.441 240.957 298.138Z" fill="white"/>
<path d="M248.917 298.175C248.941 298.528 248.893 298.881 248.775 299.214C248.657 299.547 248.472 299.852 248.231 300.11C247.99 300.369 247.699 300.574 247.375 300.715C247.051 300.856 246.702 300.929 246.349 300.929C245.996 300.929 245.646 300.856 245.322 300.715C244.999 300.574 244.707 300.369 244.466 300.11C244.225 299.852 244.04 299.547 243.922 299.214C243.805 298.881 243.756 298.528 243.781 298.175C243.756 297.823 243.805 297.47 243.922 297.137C244.04 296.804 244.225 296.499 244.466 296.24C244.707 295.982 244.999 295.776 245.322 295.635C245.646 295.495 245.996 295.422 246.349 295.422C246.702 295.422 247.051 295.495 247.375 295.635C247.699 295.776 247.99 295.982 248.231 296.24C248.472 296.499 248.657 296.804 248.775 297.137C248.893 297.47 248.941 297.823 248.917 298.175Z" fill="white"/>
<path d="M256.889 298.213C256.852 298.715 256.669 299.196 256.361 299.595C256.054 299.995 255.636 300.295 255.159 300.459C254.682 300.623 254.168 300.643 253.68 300.517C253.192 300.392 252.752 300.125 252.413 299.752C252.075 299.378 251.854 298.913 251.778 298.415C251.701 297.917 251.773 297.407 251.983 296.949C252.194 296.491 252.534 296.105 252.962 295.839C253.39 295.573 253.886 295.438 254.39 295.451C255.085 295.493 255.736 295.806 256.203 296.322C256.67 296.838 256.917 297.517 256.889 298.213Z" fill="white"/>
<path d="M264.849 298.25C264.812 298.753 264.628 299.234 264.321 299.633C264.013 300.032 263.595 300.332 263.119 300.496C262.642 300.66 262.128 300.68 261.64 300.555C261.152 300.429 260.711 300.163 260.373 299.789C260.035 299.416 259.814 298.951 259.737 298.453C259.661 297.954 259.732 297.445 259.943 296.987C260.153 296.529 260.494 296.143 260.921 295.877C261.349 295.61 261.846 295.475 262.35 295.489C263.045 295.531 263.696 295.843 264.163 296.36C264.63 296.876 264.876 297.555 264.849 298.25Z" fill="white"/>
<path d="M272.809 298.275C272.774 298.779 272.593 299.261 272.287 299.662C271.98 300.063 271.563 300.365 271.086 300.531C270.61 300.696 270.095 300.718 269.606 300.594C269.117 300.47 268.675 300.204 268.336 299.831C267.997 299.458 267.774 298.993 267.697 298.494C267.62 297.996 267.691 297.485 267.901 297.027C268.111 296.568 268.452 296.181 268.88 295.914C269.308 295.648 269.805 295.513 270.31 295.526C271.002 295.568 271.651 295.879 272.118 296.393C272.585 296.906 272.833 297.582 272.809 298.275Z" fill="white"/>
<path d="M280.781 298.313C280.747 298.813 280.567 299.293 280.264 299.693C279.961 300.093 279.547 300.396 279.074 300.564C278.601 300.732 278.089 300.757 277.602 300.638C277.114 300.519 276.672 300.26 276.33 299.893C275.988 299.525 275.76 299.066 275.676 298.571C275.591 298.077 275.653 297.568 275.854 297.108C276.055 296.648 276.386 296.257 276.806 295.982C277.226 295.708 277.718 295.562 278.22 295.564C278.923 295.59 279.588 295.894 280.068 296.409C280.548 296.924 280.805 297.609 280.781 298.313Z" fill="white"/>
<path d="M288.741 298.35C288.766 298.702 288.717 299.056 288.6 299.389C288.482 299.722 288.296 300.027 288.056 300.285C287.815 300.543 287.523 300.749 287.199 300.89C286.876 301.031 286.526 301.104 286.173 301.104C285.82 301.104 285.471 301.031 285.147 300.89C284.823 300.749 284.531 300.543 284.291 300.285C284.05 300.027 283.865 299.722 283.747 299.389C283.629 299.056 283.581 298.702 283.605 298.35C283.581 297.998 283.629 297.644 283.747 297.311C283.865 296.979 284.05 296.673 284.291 296.415C284.531 296.157 284.823 295.951 285.147 295.81C285.471 295.669 285.82 295.597 286.173 295.597C286.526 295.597 286.876 295.669 287.199 295.81C287.523 295.951 287.815 296.157 288.056 296.415C288.296 296.673 288.482 296.979 288.6 297.311C288.717 297.644 288.766 297.998 288.741 298.35Z" fill="white"/>
<path d="M296.701 298.388C296.667 298.889 296.487 299.369 296.184 299.768C295.88 300.168 295.467 300.471 294.994 300.639C294.521 300.807 294.009 300.833 293.521 300.713C293.034 300.594 292.592 300.335 292.249 299.968C291.907 299.601 291.68 299.141 291.595 298.647C291.511 298.152 291.573 297.643 291.774 297.183C291.974 296.723 292.305 296.332 292.726 296.057C293.146 295.783 293.637 295.638 294.139 295.639C294.843 295.665 295.508 295.969 295.988 296.484C296.468 296.999 296.725 297.684 296.701 298.388Z" fill="white"/>
<path d="M304.661 298.425C304.626 298.929 304.445 299.411 304.138 299.812C303.832 300.213 303.415 300.515 302.938 300.681C302.462 300.846 301.947 300.868 301.458 300.744C300.969 300.62 300.527 300.354 300.188 299.981C299.849 299.607 299.626 299.143 299.549 298.644C299.472 298.145 299.542 297.635 299.753 297.176C299.963 296.718 300.303 296.331 300.732 296.064C301.16 295.798 301.657 295.663 302.162 295.676C302.854 295.718 303.503 296.029 303.97 296.542C304.437 297.056 304.685 297.732 304.661 298.425Z" fill="white"/>
</g>
<path d="M293.352 118.035C294.22 117.653 294.956 117.024 295.47 116.226C295.983 115.429 296.25 114.498 296.239 113.549C296.271 112.933 296.177 112.316 295.964 111.737C295.75 111.158 295.421 110.628 294.996 110.18C294.571 109.732 294.059 109.376 293.492 109.132C292.925 108.888 292.314 108.763 291.696 108.763C291.079 108.763 290.468 108.888 289.901 109.132C289.333 109.376 288.822 109.732 288.397 110.18C287.972 110.628 287.643 111.158 287.429 111.737C287.215 112.316 287.122 112.933 287.154 113.549C287.135 114.507 287.4 115.449 287.916 116.257C288.432 117.064 289.176 117.7 290.053 118.085C283.055 119.135 283.368 126.732 283.368 126.732L299.912 126.807C299.912 126.807 300.3 119.073 293.352 118.035Z" fill="#407BFF"/>
<path opacity="0.1" d="M293.352 118.035C294.22 117.653 294.956 117.024 295.47 116.226C295.983 115.429 296.25 114.498 296.239 113.549C296.271 112.933 296.177 112.316 295.964 111.737C295.75 111.158 295.421 110.628 294.996 110.18C294.571 109.732 294.059 109.376 293.492 109.132C292.925 108.888 292.314 108.763 291.696 108.763C291.079 108.763 290.468 108.888 289.901 109.132C289.333 109.376 288.822 109.732 288.397 110.18C287.972 110.628 287.643 111.158 287.429 111.737C287.215 112.316 287.122 112.933 287.154 113.549C287.135 114.507 287.4 115.449 287.916 116.257C288.432 117.064 289.176 117.7 290.053 118.085C283.055 119.135 283.368 126.732 283.368 126.732L299.912 126.807C299.912 126.807 300.3 119.073 293.352 118.035Z" fill="black"/>
<path d="M320.236 131.708L261.269 131.44L261.237 138.488L320.204 138.755L320.236 131.708Z" fill="#407BFF"/>
<path opacity="0.2" d="M320.236 131.708L261.269 131.44L261.237 138.488L320.204 138.755L320.236 131.708Z" fill="white"/>
<path d="M103.453 168.231H102.866L101.166 168.356C100.246 168.412 99.3319 168.533 98.4296 168.719C97.8451 168.801 97.2653 168.913 96.6927 169.056L94.7558 169.593C91.4592 170.605 88.3488 172.145 85.5464 174.154C81.8437 176.842 78.7519 180.283 76.4744 184.251C75.1358 186.538 74.0705 188.975 73.3005 191.511C72.4914 194.267 72.0255 197.113 71.9134 199.983C71.839 201.491 71.864 203.002 71.9884 204.507C71.9884 205.269 72.2008 206.031 72.3008 206.806C72.3849 207.587 72.5311 208.36 72.7382 209.118C73.8618 214.132 76.1417 218.814 79.3961 222.791C82.6504 226.768 86.7891 229.929 91.4819 232.023C94.8784 233.488 98.5188 234.306 102.216 234.434C106.034 234.644 109.856 234.096 113.462 232.822L114.562 232.41H114.712L114.837 232.485L130.594 240.482L130.131 240.882C128.445 235.659 126.82 230.598 125.246 225.737V225.55L125.383 225.412C129.206 221.562 132.043 216.847 133.655 211.667C135.115 206.931 135.542 201.937 134.905 197.022C134.339 192.654 132.934 188.436 130.769 184.601C128.902 181.306 126.494 178.349 123.646 175.854C121.296 173.879 118.695 172.223 115.911 170.931C113.805 170.022 111.611 169.331 109.363 168.869L106.864 168.456L105.052 168.319L103.953 168.244H103.578C103.702 168.23 103.828 168.23 103.953 168.244H105.065L106.877 168.319L109.376 168.681C111.651 169.11 113.875 169.776 116.011 170.668C118.843 171.946 121.491 173.597 123.884 175.579C126.784 178.063 129.243 181.021 131.156 184.326C133.383 188.203 134.83 192.477 135.417 196.909C136.107 201.9 135.71 206.981 134.255 211.804C132.632 217.092 129.751 221.908 125.858 225.837L125.933 225.512C127.507 230.373 129.144 235.434 130.844 240.645L131.081 241.407L130.369 241.045L114.612 233.06H114.887L113.762 233.472C110.087 234.765 106.194 235.326 102.303 235.122C98.5266 234.978 94.81 234.13 91.3444 232.622C84.7338 229.791 79.2338 224.871 75.6872 218.615C74.0551 215.725 72.8632 212.609 72.1509 209.368C71.9558 208.59 71.8097 207.802 71.7135 207.006C71.6135 206.219 71.4511 205.444 71.4136 204.669C71.0754 200.223 71.5453 195.752 72.8006 191.474C73.5898 188.903 74.6848 186.436 76.0621 184.126C78.3939 180.122 81.5501 176.659 85.3215 173.967C88.17 171.953 91.3326 170.424 94.6808 169.444L96.6427 168.944C97.2201 168.81 97.804 168.705 98.3921 168.631C99.3038 168.462 100.227 168.362 101.154 168.331L102.866 168.269C103.06 168.243 103.256 168.23 103.453 168.231Z" fill="#407BFF"/>
<path d="M110.576 197.372H108.264L103.266 190.349V185.738C103.266 185.738 99.6917 185.513 100.117 191.548C100.541 197.584 100.117 196.047 100.117 196.047C100.117 196.047 92.5316 196.047 91.9068 196.734C91.282 197.421 91.2445 204.744 91.1571 208.83C91.1092 209.815 91.3918 210.788 91.9601 211.594C92.5284 212.4 93.3497 212.993 94.2935 213.279C94.5581 213.352 94.8312 213.39 95.1058 213.391C97.0051 213.391 106.664 211.854 106.664 211.854H110.651L110.576 197.372Z" fill="#407BFF"/>
<path d="M117.186 196.135L115.761 211.929H111.813V196.459L117.186 196.135Z" fill="#407BFF"/>
<path d="M164.283 517.69V507.006L145.127 506.868L144.964 523.025L146.151 523.113C151.437 523.45 173.042 523.95 176.591 522.85C180.54 521.626 164.283 517.69 164.283 517.69Z" fill="#407BFF"/>
<path d="M177.041 521.851C177.041 522.026 169.868 522.176 161.034 522.176C152.199 522.176 145.027 522.026 145.027 521.851C145.027 521.676 152.199 521.526 161.034 521.526C169.868 521.526 177.041 521.676 177.041 521.851Z" fill="#263238"/>
<path d="M164.62 519.876C164.458 519.789 164.62 519.227 165.007 518.627C165.395 518.027 165.92 517.777 166.045 517.902C166.169 518.027 165.907 518.502 165.532 519.014C165.157 519.527 164.782 519.964 164.62 519.876Z" fill="#263238"/>
<path d="M165.845 520.576C165.67 520.576 165.757 519.876 166.132 519.214C166.507 518.552 167.007 518.152 167.144 518.252C167.282 518.352 167.057 518.914 166.707 519.501C166.357 520.089 166.007 520.638 165.845 520.576Z" fill="#263238"/>
<path d="M150.8 521.801C150.725 521.801 150.437 521.576 150.025 521.101C149.521 520.491 148.961 519.93 148.35 519.426C147.75 518.947 147.035 518.632 146.276 518.514C145.689 518.439 145.314 518.514 145.276 518.439C145.239 518.364 145.601 518.102 146.289 518.052C147.196 518.033 148.08 518.334 148.788 518.902C149.451 519.442 150.009 520.098 150.437 520.838C150.725 521.388 150.875 521.751 150.8 521.801Z" fill="#263238"/>
<path d="M164.682 517.864C164.77 518.014 164.445 518.389 163.895 518.589C163.345 518.789 162.858 518.714 162.833 518.589C162.808 518.464 163.195 518.202 163.67 518.027C164.145 517.852 164.583 517.714 164.682 517.864Z" fill="#263238"/>
<path d="M164.383 516.827C164.383 517.015 163.883 517.165 163.233 517.177C162.583 517.19 162.071 517.04 162.083 516.865C162.096 516.69 162.608 516.528 163.233 516.515C163.858 516.503 164.358 516.652 164.383 516.827Z" fill="#263238"/>
<path d="M211.454 517.69V507.006L192.298 506.868L192.136 522.863L193.323 522.95C198.609 523.288 220.226 523.95 223.763 522.85C227.711 521.626 211.454 517.69 211.454 517.69Z" fill="#407BFF"/>
<path d="M224.213 521.876C224.213 522.051 217.052 522.2 208.205 522.2C199.358 522.2 192.211 522.051 192.211 521.876C192.211 521.701 199.371 521.551 208.205 521.551C217.04 521.551 224.213 521.701 224.213 521.876Z" fill="#263238"/>
<path d="M211.792 519.876C211.642 519.789 211.792 519.227 212.179 518.627C212.566 518.027 213.091 517.777 213.216 517.902C213.341 518.027 213.079 518.502 212.704 519.014C212.329 519.527 211.954 519.964 211.792 519.876Z" fill="#263238"/>
<path d="M213.016 520.576C212.854 520.576 212.929 519.876 213.316 519.214C213.704 518.552 214.191 518.152 214.328 518.252C214.466 518.352 214.228 518.914 213.879 519.501C213.529 520.089 213.191 520.638 213.016 520.576Z" fill="#263238"/>
<path d="M197.971 521.801C197.896 521.801 197.621 521.576 197.197 521.101C196.693 520.491 196.133 519.93 195.522 519.426C194.922 518.947 194.207 518.632 193.448 518.514C192.873 518.439 192.486 518.514 192.448 518.439C192.411 518.364 192.773 518.102 193.46 518.052C194.367 518.033 195.252 518.334 195.96 518.902C196.626 519.438 197.185 520.095 197.609 520.838C197.896 521.388 198.046 521.751 197.971 521.801Z" fill="#263238"/>
<path d="M211.854 517.864C211.942 518.014 211.617 518.389 211.067 518.589C210.517 518.789 210.03 518.714 210.005 518.589C209.98 518.464 210.367 518.202 210.842 518.027C211.317 517.852 211.754 517.714 211.854 517.864Z" fill="#263238"/>
<path d="M211.579 516.827C211.579 517.015 211.079 517.165 210.43 517.177C209.78 517.19 209.28 517.04 209.293 516.865C209.305 516.69 209.805 516.528 210.43 516.515C211.055 516.503 211.579 516.652 211.579 516.827Z" fill="#263238"/>
<path d="M282.031 200.42C281.531 199.908 280.294 200.158 280.294 200.158C280.418 199.439 280.418 198.703 280.294 197.984C280.069 197.284 278.494 197.421 278.494 197.421C278.422 196.832 278.422 196.236 278.494 195.647C278.507 195.516 278.479 195.385 278.414 195.271C278.349 195.157 278.251 195.066 278.132 195.01C277.387 194.706 276.587 194.561 275.783 194.585C274.821 193.898 278.719 188.437 280.169 186.687C281.618 184.938 281.356 183.576 280.069 183.576C279.182 183.576 274.633 188.824 273.234 190.586C271.834 192.348 268.123 197.246 267.998 193.335C267.873 189.424 266.299 186.475 265.311 185.975C264.324 185.475 263.275 186.65 263.812 187.737C264.284 188.972 264.578 190.268 264.687 191.586C264.822 192.636 264.776 193.701 264.549 194.735C264.135 196.659 263.571 198.547 262.862 200.383H262.762C262.762 200.383 235.496 226.537 233.522 228.399C231.76 230.073 196.322 226.412 189.212 225.662C186.796 225.308 184.356 225.141 181.914 225.162C178.828 225.3 178.278 225.737 175.204 225.774C167.441 225.861 159.696 226.542 152.037 227.811C148.569 228.401 145.329 229.932 142.672 232.237C140.014 234.542 138.041 237.532 136.967 240.882C129.807 263.249 113.587 316.194 110.726 345.934C108.563 349.856 106.611 353.889 104.877 358.018C102.866 363.491 103.353 363.678 104.028 363.803C105.852 364.141 107.926 354.319 108.701 356.693C109.476 359.067 104.765 368.402 106.677 368.677C109.176 369.027 111.163 358.68 111.4 357.855C111.638 357.031 112.875 357.293 112.65 358.068C112.288 359.167 108.776 370.826 111.225 371.201C112.575 371.401 112.725 368.939 112.725 368.939C112.725 368.939 115.224 357.78 116.361 358.005C117.498 358.23 116.286 364.816 115.711 367.015C115.137 369.214 115.936 370.326 117.111 369.789C117.911 369.414 119.823 362.729 120.347 360.554C120.872 358.38 122.184 352.357 123.946 355.843C125.708 359.33 128.382 361.354 129.482 361.404C129.73 361.376 129.963 361.273 130.152 361.111C130.342 360.949 130.478 360.733 130.544 360.493C130.61 360.252 130.602 359.997 130.522 359.761C130.442 359.525 130.293 359.318 130.094 359.167C129.148 358.244 128.336 357.192 127.682 356.043C127.099 355.149 126.677 354.159 126.433 353.119C125.929 351.047 125.636 348.928 125.558 346.796L125.358 345.547C128.157 331.689 136.217 291.015 147.851 265.036L152.624 274.858L154.698 282.131L141.978 313.533L196.234 312.82L188.137 281.656L197.971 249.167C208.605 249.404 235.909 249.804 240.457 247.742C246.18 245.243 275.783 207.855 275.783 207.855C277.713 206.356 279.56 204.754 281.319 203.057C281.319 203.057 283.118 201.545 282.031 200.42Z" fill="#FFBE9D"/>
<path d="M139.591 290.328C141.165 284.955 149.25 258.389 149.25 258.389C149.25 258.389 153.224 280.044 152.174 282.655C151.209 284.891 150.068 287.047 148.763 289.103C139.591 303.061 140.79 310.046 140.79 310.046L196.209 308.359C196.334 300.612 191.748 282.593 190.799 279.719C189.849 276.845 193.01 267.436 193.01 267.436C193.01 267.436 199.258 261.075 199.033 257.801C198.915 254.86 198.551 251.935 197.946 249.054L231.685 250.304L230.623 227.436L182.164 222.588C180.477 227.349 165.22 225.012 165.22 225.012C148.75 225.562 147.726 228.586 140.878 233.909C134.03 239.232 122.696 284.917 122.696 284.917L139.591 290.328Z" fill="#407BFF"/>
<path d="M172.355 284.917C171.394 285.089 170.416 285.139 169.443 285.067C167.631 285.067 165.145 284.942 162.408 284.667C159.672 284.392 157.197 284.005 155.436 283.655C154.464 283.53 153.511 283.287 152.599 282.93C153.576 282.931 154.551 283.023 155.511 283.205C157.285 283.43 159.747 283.743 162.471 284.018C165.195 284.292 167.669 284.48 169.456 284.605C170.43 284.617 171.401 284.722 172.355 284.917Z" fill="#263238"/>
<path d="M176.154 280.206C175.193 280.677 174.177 281.025 173.13 281.244C168.144 282.554 163.001 283.163 157.847 283.055C156.781 283.09 155.714 282.989 154.673 282.756C155.726 282.623 156.787 282.568 157.847 282.593C159.809 282.531 162.508 282.393 165.482 282.043C168.456 281.693 171.105 281.194 172.98 280.794C174.021 280.516 175.082 280.319 176.154 280.206Z" fill="#263238"/>
<path d="M194.797 259.188C194.772 260.141 194.642 261.088 194.41 262.013C194.085 263.749 193.585 266.124 192.948 268.723C192.311 271.322 191.698 273.721 191.149 275.346C190.928 276.275 190.601 277.177 190.174 278.032C190.244 277.082 190.42 276.144 190.699 275.233C191.174 273.284 191.711 271.035 192.311 268.573C192.911 266.111 193.485 263.862 193.96 261.913C194.129 260.974 194.41 260.06 194.797 259.188Z" fill="#263238"/>
<path d="M140.178 287.141C137.287 286.695 134.434 286.031 131.644 285.155C128.792 284.488 125.993 283.611 123.271 282.531C126.161 282.984 129.013 283.648 131.806 284.517C134.658 285.182 137.457 286.059 140.178 287.141Z" fill="#263238"/>
<path d="M198.546 248.779C198.075 248.861 197.593 248.861 197.122 248.779C195.816 248.646 194.535 248.339 193.31 247.867C191.266 247.099 189.405 245.912 187.847 244.382C186.289 242.852 185.068 241.013 184.263 238.983C183.374 236.75 182.994 234.346 183.151 231.948C183.207 229.969 183.799 228.043 184.863 226.374C185.612 225.25 186.73 224.424 188.025 224.038C188.37 223.942 188.728 223.896 189.087 223.9C189.337 223.9 189.462 223.9 189.462 223.9C189.462 223.9 188.937 223.9 188.1 224.238C186.912 224.676 185.905 225.499 185.238 226.574C183.539 229.249 183.064 234.134 184.876 238.695C185.719 240.846 187.039 242.777 188.737 244.343C190.128 245.625 191.73 246.657 193.473 247.392C195.108 248.039 196.809 248.504 198.546 248.779Z" fill="#263238"/>
<path d="M227.674 249.854C227.361 246.022 227.261 242.176 227.374 238.333C227.276 234.493 227.393 230.651 227.724 226.824C228.037 230.652 228.137 234.494 228.024 238.333C228.129 242.177 228.012 246.024 227.674 249.854Z" fill="#263238"/>
<path d="M181.839 223.988C181.977 221.201 182.264 218.052 182.264 218.052C182.264 218.052 189.162 217.29 189.574 210.167C189.987 203.045 189.574 186.613 189.574 186.613L177.078 180.215L163.208 191.124L165.345 226.737L178.065 227.549C179.038 227.576 179.981 227.216 180.689 226.548C181.396 225.881 181.81 224.96 181.839 223.988Z" fill="#FFBE9D"/>
<path d="M183.076 204.532C183.076 204.532 183.076 204.669 182.964 204.832C182.871 204.949 182.751 205.043 182.613 205.104C182.476 205.165 182.326 205.191 182.177 205.181C181.377 205.181 180.602 204.257 180.327 203.182C180.197 202.661 180.197 202.116 180.327 201.595C180.353 201.368 180.435 201.15 180.566 200.963C180.697 200.775 180.872 200.623 181.077 200.52C181.245 200.451 181.434 200.451 181.602 200.52C181.726 200.582 181.827 200.683 181.889 200.808C181.977 201.02 181.889 201.158 181.889 201.145C181.889 201.133 181.889 201.02 181.764 200.895C181.699 200.806 181.603 200.744 181.495 200.721C181.386 200.697 181.273 200.715 181.177 200.77C181.024 200.863 180.896 200.993 180.807 201.148C180.717 201.303 180.668 201.478 180.665 201.658C180.559 202.122 180.559 202.605 180.665 203.07C180.915 204.044 181.589 204.832 182.189 204.906C182.306 204.922 182.426 204.914 182.54 204.882C182.654 204.849 182.76 204.794 182.851 204.719C183.001 204.619 183.051 204.519 183.076 204.532Z" fill="#EB996E"/>
<path d="M193.86 182.764C192.898 179.49 189.412 177.866 186.238 176.966C181.402 175.591 176.179 174.992 171.455 176.728C166.732 178.465 161.059 181.514 161.059 186.725C158.272 186.5 156.673 188.937 155.573 191.961C154.87 193.803 154.449 195.741 154.323 197.709C153.974 204.532 152.062 213.953 147.638 218.952C145.139 221.738 141.678 223.663 140.253 227.137C139.004 230.148 139.653 233.722 138.491 236.771C137.454 239.457 135.167 241.369 133.493 243.706C131.787 246.357 130.783 249.398 130.575 252.543C130.368 255.689 130.963 258.835 132.306 261.688C133.658 264.467 135.562 266.941 137.901 268.96C140.241 270.98 142.967 272.502 145.914 273.434C151.751 275.209 157.975 275.27 163.845 273.609C168.251 272.555 172.361 270.517 175.866 267.648C179.453 264.719 181.916 260.64 182.839 256.102C183.726 251.004 182.302 245.818 181.239 240.745C177.916 224.712 178.865 223.875 183.064 208.993C183.164 208.73 183.214 208.455 183.289 208.193C183.364 207.931 183.401 207.806 183.451 207.606C183.571 207.017 183.633 206.419 183.639 205.819C183.025 206.047 182.36 206.095 181.72 205.958C181.08 205.821 180.493 205.503 180.027 205.044C179.561 204.554 179.235 203.947 179.085 203.287C178.936 202.627 178.968 201.939 179.178 201.295C179.472 200.592 179.912 199.958 180.467 199.435C181.023 198.912 181.682 198.511 182.402 198.259C183.789 197.684 185.276 197.384 186.638 196.747C189.524 195.372 191.524 192.523 192.886 189.537C194.005 187.467 194.351 185.066 193.86 182.764Z" fill="#263238"/>
<path d="M183.576 204.869C183.84 205.259 184.058 205.678 184.226 206.119C184.601 206.906 185.101 208.018 185.65 209.305L185.75 209.542H185.488L184.238 209.655C183.376 209.655 182.651 209.817 181.802 209.805C181.728 209.788 181.659 209.753 181.602 209.703C181.546 209.653 181.502 209.589 181.477 209.517C181.44 209.404 181.44 209.281 181.477 209.168C181.506 208.999 181.543 208.832 181.589 208.668L181.814 207.781C181.927 207.189 182.103 206.611 182.339 206.056C182.316 206.659 182.228 207.259 182.077 207.843L181.902 208.73C181.839 209.03 181.727 209.492 181.902 209.455C182.526 209.455 183.414 209.318 184.238 209.268L185.488 209.155L185.326 209.43C184.788 208.18 184.338 207.006 184.076 206.194C183.846 205.779 183.677 205.333 183.576 204.869Z" fill="#407BFF"/>
<path d="M140.79 310.046L196.209 308.359L220.326 402.503L215.89 510.492H186.588L190.174 404.802L168.744 339.262L172.043 514.678L142.427 515.115L139.316 350.233C139.178 345.647 137.679 335.313 138.241 330.764L140.79 310.046Z" fill="#263238"/>
<path d="M176.116 340.599C175.209 340.656 174.298 340.601 173.405 340.436C171.73 340.236 169.443 339.886 166.932 339.386C164.42 338.887 162.171 338.312 160.546 337.85C159.678 337.659 158.838 337.356 158.047 336.95C158.047 336.762 162.121 337.737 167.119 338.749C172.117 339.761 176.141 340.411 176.116 340.599Z" fill="#455A64"/>
<path d="M215.59 504.569C215.59 504.744 208.955 504.894 200.77 504.894C192.586 504.894 185.938 504.744 185.938 504.569C185.938 504.394 192.573 504.244 200.77 504.244C208.968 504.244 215.59 504.381 215.59 504.569Z" fill="#455A64"/>
<path d="M171.78 510.117C171.78 510.304 165.332 510.442 157.385 510.442C149.438 510.442 143.002 510.304 143.002 510.117C143.002 509.93 149.45 509.792 157.385 509.792C165.32 509.792 171.78 509.942 171.78 510.117Z" fill="#455A64"/>
<path d="M167.956 509.667C167.781 509.667 167.007 471.343 166.219 424.071C165.432 376.799 164.97 338.449 165.132 338.449C165.295 338.449 166.095 376.762 166.869 424.058C167.644 471.355 168.144 509.667 167.956 509.667Z" fill="#455A64"/>
<path d="M211.654 504.569C211.641 504.398 211.641 504.227 211.654 504.057V502.557C211.654 501.207 211.754 499.271 211.829 496.809C212.004 491.811 212.254 484.551 212.566 475.654C213.241 457.76 214.191 433.093 215.228 405.864C215.228 405.602 215.228 405.352 215.228 405.127V405.215C208.668 378.973 202.732 355.156 198.421 337.925L193.423 317.544C192.848 315.157 192.411 313.295 192.098 311.996C191.948 311.383 191.848 310.909 191.761 310.546C191.712 310.384 191.683 310.216 191.673 310.046C191.738 310.204 191.788 310.367 191.823 310.534C191.923 310.884 192.048 311.358 192.223 311.958C192.561 313.208 193.048 315.107 193.673 317.481C194.922 322.305 196.684 329.252 198.883 337.812C203.232 355.031 209.23 378.786 215.878 405.065V405.152C215.878 405.377 215.878 405.639 215.878 405.889C214.766 433.118 213.754 457.772 213.016 475.666C212.629 484.576 212.304 491.786 212.079 496.809C211.954 499.308 211.854 501.207 211.792 502.557C211.792 503.194 211.717 503.694 211.704 504.057C211.706 504.229 211.689 504.4 211.654 504.569Z" fill="#455A64"/>
<path d="M202.095 402.928C199.99 403.62 197.822 404.101 195.622 404.365C192.923 404.827 190.624 405.152 189.587 405.202V404.952C189.924 405.052 190.099 405.115 190.099 405.165C190.099 405.215 189.887 405.165 189.537 405.165H188.787L189.537 404.94C190.511 404.652 192.811 404.178 195.51 403.69C197.674 403.221 199.88 402.965 202.095 402.928Z" fill="#455A64"/>
<path d="M201.583 406.514C199.634 406.604 197.68 406.516 195.747 406.252C193.795 406.212 191.851 405.999 189.937 405.615C193.842 405.296 197.773 405.6 201.583 406.514Z" fill="#455A64"/>
<path opacity="0.2" d="M140.553 312.033C141.209 312.876 142.036 313.571 142.979 314.073C143.922 314.574 144.96 314.871 146.026 314.945C148.258 315.209 150.516 315.167 152.736 314.82C167.044 313.233 182.202 311.771 196.209 308.359C178.078 309.372 158.922 309.034 140.79 310.046L140.603 311.596" fill="black"/>
<g opacity="0.2">
<path d="M159.234 337.587L169.456 377.249L168.744 339.262L159.234 337.587Z" fill="black"/>
</g>
</svg>
