<svg width="74" height="26" viewBox="0 0 74 26" fill="none" xmlns="http://www.w3.org/2000/svg">
<path d="M62.3164 17.7875C62.3164 12.6273 64.2597 10.0471 68.1463 10.0471C72.0487 10.0471 74 12.6273 74 17.7875C74 18.7315 73.9603 19.5574 73.881 20.2654C73.8175 20.9734 73.6589 21.6971 73.4051 22.4365C73.1671 23.1759 72.8419 23.7816 72.4295 24.2536C72.017 24.7256 71.4459 25.111 70.7162 25.4099C70.0023 25.7089 69.1457 25.8583 68.1463 25.8583C67.1627 25.8583 66.3061 25.7089 65.5764 25.4099C64.8625 25.111 64.2994 24.7256 63.8869 24.2536C63.4744 23.7816 63.1413 23.1759 62.8875 22.4365C62.6495 21.6971 62.4909 20.9734 62.4116 20.2654C62.3481 19.5574 62.3164 18.7315 62.3164 17.7875ZM66.1475 23.5928C66.6868 23.939 67.3531 24.112 68.1463 24.112C68.9553 24.112 69.6295 23.939 70.1689 23.5928C70.7241 23.2467 71.1366 22.7511 71.4063 22.1061C71.8822 20.9891 72.1201 19.5574 72.1201 17.8111C72.1201 13.5633 70.7955 11.4394 68.1463 11.4394C65.5129 11.4394 64.1962 13.5633 64.1962 17.8111C64.1962 20.8475 64.8467 22.7747 66.1475 23.5928Z" fill="#3676E0"/>
<path d="M58.8319 23.8194C56.8553 25.2731 54.5234 25.9999 51.8361 25.9999C49.1488 25.9999 47.1389 25.0969 45.8063 23.2908C44.496 21.4847 43.8408 18.7205 43.8408 14.9982C43.8408 7.57556 46.6281 3.86426 52.2025 3.86426C53.7572 3.86426 55.0786 4.17262 56.1668 4.78933C57.2551 5.38402 58.0324 6.24302 58.4988 7.36632C58.632 7.76278 58.6987 8.19228 58.6987 8.65482C58.6987 9.97635 58.1212 10.6371 56.9664 10.6371C56.2779 10.6371 55.7449 10.4279 55.3673 10.0094C54.9898 9.5909 54.801 9.05128 54.801 8.39051C54.801 7.72974 54.9342 7.21214 55.2007 6.83771C54.4901 6.15492 53.4907 5.81352 52.2025 5.81352C50.3592 5.81352 48.96 6.5734 48.005 8.09316C47.05 9.5909 46.5725 11.8045 46.5725 14.7339C46.5725 20.6147 48.4159 23.5551 52.1026 23.5551C53.9015 23.5551 55.4228 23.0485 56.6665 22.0353C56.6443 20.2733 56.5666 18.7645 56.4334 17.5091C53.7683 17.5972 51.9804 17.7183 51.0699 17.8725C50.9588 17.2778 50.9033 16.7052 50.9033 16.1545C50.9033 15.6039 50.9144 15.2294 50.9366 15.0312C52.0693 15.2074 53.4906 15.2955 55.2007 15.2955C56.9108 15.2955 58.2323 15.2625 59.1651 15.1964C58.943 17.5311 58.8319 20.4055 58.8319 23.8194Z" fill="#3676E0"/>
<path d="M38.0321 11.6519C38.0004 11.4001 37.9845 11.1877 37.9845 11.0147C37.9845 10.8259 38.0083 10.5978 38.0559 10.3303C38.5635 10.3461 39.1901 10.3539 39.9357 10.3539C40.6972 10.3539 41.3555 10.3461 41.9107 10.3303C41.9583 10.5978 41.9821 10.8495 41.9821 11.0855C41.9821 11.3057 41.9663 11.4945 41.9345 11.6519L41.1017 11.7227C38.9284 16.3638 37.6434 19.4316 37.2468 20.9262C37.2944 22.1219 37.3579 23.1917 37.4372 24.1356L38.2938 24.2064C38.3256 24.4581 38.3414 24.6784 38.3414 24.8672C38.3414 25.0402 38.3176 25.2605 38.27 25.528C37.7148 25.5122 37.0723 25.5044 36.3426 25.5044C35.6129 25.5044 34.9783 25.5122 34.439 25.528C34.3914 25.292 34.3676 25.0874 34.3676 24.9144C34.3676 24.7256 34.3834 24.4896 34.4152 24.2064L35.248 24.1356C35.3432 22.7669 35.3987 21.6813 35.4146 20.879C35.0021 19.526 33.8917 17.056 32.0832 13.469C31.5756 12.4935 31.2742 11.9114 31.179 11.7227L30.2986 11.6519C30.2668 11.4001 30.251 11.1877 30.251 11.0147C30.251 10.8259 30.2748 10.5978 30.3224 10.3303C30.8776 10.3461 31.5597 10.3539 32.3688 10.3539C33.1937 10.3539 33.8758 10.3461 34.4152 10.3303C34.4628 10.5663 34.4866 10.7787 34.4866 10.9675C34.4866 11.1405 34.4707 11.3687 34.439 11.6519L33.5823 11.7227C33.8837 12.8397 34.3834 14.1533 35.0814 15.6637C35.7794 17.174 36.2236 18.1494 36.414 18.5899H36.5092C36.9375 17.7718 37.3896 16.7099 37.8655 15.4041C38.3414 14.0825 38.6904 12.8554 38.9125 11.7227L38.0321 11.6519Z" fill="#FF2B2B"/>
<path d="M21.9705 11.7698C21.9229 11.5811 21.8991 11.3372 21.8991 11.0383C21.8991 10.7394 21.9071 10.5427 21.9229 10.4483C23.3189 10.2753 24.358 10.1887 25.0401 10.1887C25.7223 10.1887 26.3013 10.2674 26.7772 10.4247C27.1579 13.3824 28.4825 17.9527 30.751 24.1356L31.6315 24.2064C31.6632 24.5525 31.679 24.7964 31.679 24.938C31.679 25.0638 31.6553 25.2605 31.6077 25.5279C31.1635 25.5122 30.4734 25.5043 29.5375 25.5043C28.6015 25.5043 27.9511 25.5122 27.5862 25.5279C27.5386 25.292 27.5148 25.0717 27.5148 24.8672C27.5148 24.6469 27.5307 24.4267 27.5624 24.2064L28.3953 24.1356C28.316 23.758 28.1891 23.2153 28.0146 22.5073C27.8401 21.7836 27.7449 21.3824 27.729 21.3038C26.8248 21.2566 25.8412 21.233 24.7784 21.233C23.7314 21.233 22.7478 21.2644 21.8277 21.3274L21.1615 24.1356L22.0657 24.2064C22.0974 24.5525 22.1133 24.7964 22.1133 24.938C22.1133 25.0638 22.0895 25.2605 22.0419 25.5279C21.6612 25.5122 21.0346 25.5043 20.1621 25.5043C19.3054 25.5043 18.7026 25.5122 18.3536 25.5279C18.306 25.292 18.2822 25.0717 18.2822 24.8672C18.2822 24.6469 18.2981 24.4267 18.3298 24.2064L19.1627 24.1356C21.0663 18.9596 22.3195 14.8613 22.9223 11.8406L21.9705 11.7698ZM22.2561 19.6754C22.7954 19.6912 23.6045 19.699 24.6832 19.699C25.7619 19.699 26.6344 19.6754 27.3007 19.6282C26.5551 16.8279 25.7699 14.2399 24.9449 11.8642H24.8022C23.8662 14.114 23.0175 16.7177 22.2561 19.6754Z" fill="#3676E0"/>
<path d="M7.22429 12.6159C7.98336 13.3687 8.8864 13.7451 9.93339 13.7451C11.0066 13.7451 11.8703 13.4206 12.5247 12.7717C13.5717 11.7074 14.0952 10.1239 14.0952 8.02123C14.0952 4.15339 12.3677 2.21947 8.91257 2.21947C7.81322 2.21947 6.583 2.50501 5.2219 3.0761C5.03868 5.12684 4.94707 8.31976 4.94707 12.6549C4.94707 16.99 5.06485 20.5203 5.30043 23.246L7.53839 23.4018C7.59074 23.8171 7.61691 24.1935 7.61691 24.531C7.61691 24.8684 7.57765 25.2059 7.49912 25.5434C6.55683 25.5174 5.3266 25.5044 3.80846 25.5044C2.31648 25.5044 1.16478 25.5174 0.353361 25.5434C0.274836 25.154 0.235575 24.8165 0.235575 24.531C0.235575 24.2195 0.261749 23.8301 0.314099 23.3628L1.68828 23.246C1.89768 20.4684 2.00238 16.9251 2.00238 12.6159C2.00238 8.28082 1.87151 5.06194 1.60976 2.95929L0.117786 2.84248C0.0392613 2.47906 0 2.0767 0 1.6354C0 1.1941 0.0130865 0.869616 0.0392613 0.661947C1.13861 0.610029 2.64367 0.493215 4.55444 0.311505C5.88936 0.103835 7.35516 0 8.95183 0C12.0405 0 14.2392 0.700885 15.5479 2.10265C16.8567 3.47846 17.511 5.42537 17.511 7.94336C17.511 10.4354 16.8436 12.4602 15.5087 14.0177C14.1999 15.5752 12.1975 16.354 9.50151 16.354C8.45451 16.354 7.4206 16.1593 6.39978 15.7699C6.39978 15.069 6.49139 14.4201 6.67461 13.823C6.85784 13.226 7.04106 12.8236 7.22429 12.6159Z" fill="#3676E0"/>
</svg>
