<svg width="104" height="36" viewBox="0 0 104 36" fill="none" xmlns="http://www.w3.org/2000/svg">
<path d="M87.5799 24.629C87.5799 17.484 90.311 13.9115 95.7732 13.9115C101.258 13.9115 104 17.484 104 24.629C104 25.936 103.944 27.0796 103.833 28.0599C103.744 29.0402 103.521 30.0422 103.164 31.066C102.83 32.0898 102.372 32.9285 101.793 33.582C101.213 34.2355 100.411 34.7692 99.385 35.1831C98.3817 35.597 97.1778 35.8039 95.7732 35.8039C94.391 35.8039 93.187 35.597 92.1615 35.1831C91.1582 34.7692 90.3667 34.2355 89.7871 33.582C89.2074 32.9285 88.7392 32.0898 88.3825 31.066C88.0481 30.0422 87.8251 29.0402 87.7137 28.0599C87.6245 27.0796 87.5799 25.936 87.5799 24.629ZM92.9641 32.6671C93.7221 33.1463 94.6585 33.386 95.7732 33.386C96.9103 33.386 97.8578 33.1463 98.6158 32.6671C99.3961 32.1879 99.9758 31.5017 100.355 30.6086C101.024 29.0619 101.358 27.0796 101.358 24.6617C101.358 18.7801 99.4965 15.8393 95.7732 15.8393C92.0723 15.8393 90.2218 18.7801 90.2218 24.6617C90.2218 28.8659 91.1359 31.5344 92.9641 32.6671Z" fill="#3676E0"/>
<path d="M82.6827 32.9808C79.9047 34.9936 76.6274 36 72.8507 36C69.0739 36 66.2492 34.7496 64.3764 32.2489C62.5349 29.7481 61.6141 25.9208 61.6141 20.7668C61.6141 10.4893 65.5313 5.35059 73.3657 5.35059C75.5506 5.35059 77.4077 5.77754 78.9371 6.63146C80.4666 7.45487 81.559 8.64425 82.2145 10.1996C82.4018 10.7485 82.4954 11.3432 82.4954 11.9837C82.4954 13.8135 81.6839 14.7284 80.0608 14.7284C79.0932 14.7284 78.3441 14.4387 77.8135 13.8592C77.2829 13.2798 77.0176 12.5326 77.0176 11.6177C77.0176 10.7028 77.2048 9.98612 77.5794 9.46767C76.5806 8.52227 75.176 8.04956 73.3657 8.04956C70.775 8.04956 68.8086 9.10171 67.4665 11.206C66.1243 13.2798 65.4532 16.3447 65.4532 20.4008C65.4532 28.5435 68.0439 32.6148 73.2252 32.6148C75.7534 32.6148 77.8915 31.9134 79.6394 30.5105C79.6082 28.0708 79.499 25.9818 79.3117 24.2434C75.5662 24.3654 73.0535 24.5332 71.7738 24.7466C71.6177 23.9232 71.5397 23.1303 71.5397 22.3679C71.5397 21.6054 71.5553 21.087 71.5865 20.8125C73.1784 21.0565 75.176 21.1785 77.5794 21.1785C79.9828 21.1785 81.8399 21.1327 83.1509 21.0413C82.8387 24.2739 82.6827 28.2538 82.6827 32.9808Z" fill="#3676E0"/>
<path d="M53.4503 16.1334C53.4057 15.7849 53.3834 15.4908 53.3834 15.2512C53.3834 14.9898 53.4169 14.6739 53.4838 14.3036C54.1972 14.3254 55.0778 14.3363 56.1257 14.3363C57.1958 14.3363 58.1211 14.3254 58.9014 14.3036C58.9683 14.6739 59.0017 15.0224 59.0017 15.3492C59.0017 15.6542 58.9794 15.9156 58.9348 16.1334L57.7644 16.2314C54.71 22.6576 52.9041 26.9054 52.3467 28.9748C52.4136 30.6303 52.5028 32.1116 52.6143 33.4186L53.8182 33.5166C53.8628 33.8652 53.8851 34.1702 53.8851 34.4316C53.8851 34.6712 53.8516 34.9761 53.7847 35.3465C53.0044 35.3247 52.1015 35.3138 51.0759 35.3138C50.0504 35.3138 49.1586 35.3247 48.4005 35.3465C48.3337 35.0197 48.3002 34.7365 48.3002 34.4969C48.3002 34.2355 48.3225 33.9088 48.3671 33.5166L49.5376 33.4186C49.6713 31.5235 49.7494 30.0204 49.7717 28.9094C49.192 27.0361 47.6314 23.616 45.0898 18.6494C44.3763 17.2988 43.9527 16.4928 43.819 16.2314L42.5816 16.1334C42.537 15.7849 42.5147 15.4908 42.5147 15.2512C42.5147 14.9898 42.5482 14.6739 42.615 14.3036C43.3954 14.3254 44.354 14.3363 45.4911 14.3363C46.6504 14.3363 47.6091 14.3254 48.3671 14.3036C48.434 14.6303 48.4674 14.9244 48.4674 15.1858C48.4674 15.4254 48.4451 15.7413 48.4005 16.1334L47.1966 16.2314C47.6202 17.7781 48.3225 19.597 49.3035 21.6882C50.2845 23.7794 50.9087 25.13 51.1762 25.7399H51.31C51.912 24.6072 52.5474 23.1368 53.2162 21.3288C53.8851 19.499 54.3755 17.7998 54.6877 16.2314L53.4503 16.1334Z" fill="#FF2B2B"/>
<path d="M30.8776 16.2968C30.8107 16.0354 30.7772 15.6977 30.7772 15.2839C30.7772 14.87 30.7884 14.5977 30.8107 14.467C32.7726 14.2274 34.2329 14.1075 35.1916 14.1075C36.1503 14.1075 36.9641 14.2165 37.6329 14.4343C38.168 18.5296 40.0296 24.8577 43.2177 33.4186L44.4551 33.5167C44.4997 33.9959 44.522 34.3335 44.522 34.5296C44.522 34.7039 44.4886 34.9762 44.4217 35.3465C43.7974 35.3247 42.8276 35.3138 41.5122 35.3138C40.1968 35.3138 39.2827 35.3247 38.7699 35.3465C38.703 35.0197 38.6696 34.7148 38.6696 34.4316C38.6696 34.1266 38.6919 33.8216 38.7365 33.5167L39.907 33.4186C39.7955 32.8958 39.6171 32.1443 39.3719 31.164C39.1266 30.162 38.9929 29.6065 38.9706 29.4976C37.6998 29.4323 36.3175 29.3996 34.8238 29.3996C33.3523 29.3996 31.97 29.4431 30.6769 29.5303L29.7405 33.4186L31.0113 33.5167C31.0559 33.9959 31.0782 34.3335 31.0782 34.5296C31.0782 34.7039 31.0448 34.9762 30.9779 35.3465C30.4428 35.3247 29.5622 35.3138 28.336 35.3138C27.132 35.3138 26.2848 35.3247 25.7944 35.3465C25.7275 35.0197 25.694 34.7148 25.694 34.4316C25.694 34.1266 25.7163 33.8216 25.7609 33.5167L26.9314 33.4186C29.6068 26.2519 31.3681 20.5772 32.2153 16.3948L30.8776 16.2968ZM31.2789 27.243C32.0369 27.2648 33.1739 27.2757 34.69 27.2757C36.206 27.2757 37.4322 27.243 38.3686 27.1777C37.3208 23.3002 36.2172 19.7168 35.0579 16.4275H34.8572C33.5418 19.5425 32.349 23.1477 31.2789 27.243Z" fill="#3676E0"/>
<path d="M10.1531 17.4682C11.2199 18.5105 12.489 19.0317 13.9604 19.0317C15.4687 19.0317 16.6826 18.5824 17.6023 17.6839C19.0738 16.2102 19.8095 14.0177 19.8095 11.1063C19.8095 5.75085 17.3816 3.07311 12.5258 3.07311C10.9807 3.07311 9.25178 3.46848 7.33889 4.25922C7.08139 7.0987 6.95263 11.5197 6.95263 17.5221C6.95263 23.5246 7.11817 28.4128 7.44925 32.1868L10.5945 32.4024C10.6681 32.9775 10.7048 33.4987 10.7048 33.9659C10.7048 34.4332 10.6497 34.9005 10.5393 35.3677C9.215 35.3318 7.48604 35.3138 5.35242 35.3138C3.2556 35.3138 1.63699 35.3318 0.496615 35.3677C0.386256 34.8286 0.331078 34.3613 0.331078 33.9659C0.331078 33.5346 0.367864 32.9955 0.441437 32.3485L2.37272 32.1868C2.66701 28.3409 2.81416 23.4347 2.81416 17.4682C2.81416 11.4658 2.63023 7.00884 2.26237 4.09748L0.165537 3.93574C0.055178 3.43254 0 2.87542 0 2.2644C0 1.65337 0.0183918 1.20408 0.055178 0.916543C1.60021 0.844656 3.71543 0.682914 6.40084 0.431315C8.27694 0.143772 10.337 0 12.581 0C16.9218 0 20.0118 0.970456 21.8511 2.91137C23.6905 4.81634 24.6101 7.51204 24.6101 10.9985C24.6101 14.449 23.6721 17.2525 21.796 19.4091C19.9566 21.5657 17.1425 22.644 13.3535 22.644C11.882 22.644 10.4289 22.3744 8.99428 21.8353C8.99428 20.8648 9.12303 19.9662 9.38054 19.1395C9.63804 18.3129 9.89555 17.7557 10.1531 17.4682Z" fill="#3676E0"/>
</svg>
