<svg width="23" height="23" viewBox="0 0 23 23" fill="none" xmlns="http://www.w3.org/2000/svg">
<path d="M1.4375 6.82812C1.4375 5.97032 1.77826 5.14764 2.38483 4.54108C2.99139 3.93451 3.81407 3.59375 4.67188 3.59375H18.3281C19.1859 3.59375 20.0086 3.93451 20.6152 4.54108C21.2217 5.14764 21.5625 5.97032 21.5625 6.82812V16.1719C21.5625 17.0297 21.2217 17.8524 20.6152 18.4589C20.0086 19.0655 19.1859 19.4062 18.3281 19.4062H4.67188C3.81407 19.4062 2.99139 19.0655 2.38483 18.4589C1.77826 17.8524 1.4375 17.0297 1.4375 16.1719V6.82812ZM4.67188 5.03125C4.19531 5.03125 3.73827 5.22056 3.40129 5.55754C3.06431 5.89452 2.875 6.35156 2.875 6.82812V7.90625H20.125V6.82812C20.125 6.35156 19.9357 5.89452 19.5987 5.55754C19.2617 5.22056 18.8047 5.03125 18.3281 5.03125H4.67188ZM2.875 16.1719C2.875 16.6484 3.06431 17.1055 3.40129 17.4425C3.73827 17.7794 4.19531 17.9688 4.67188 17.9688H18.3281C18.8047 17.9688 19.2617 17.7794 19.5987 17.4425C19.9357 17.1055 20.125 16.6484 20.125 16.1719V9.34375H2.875V16.1719ZM15.0938 13.6562H17.25C17.4406 13.6562 17.6234 13.732 17.7582 13.8668C17.893 14.0016 17.9688 14.1844 17.9688 14.375C17.9688 14.5656 17.893 14.7484 17.7582 14.8832C17.6234 15.018 17.4406 15.0938 17.25 15.0938H15.0938C14.9031 15.0938 14.7203 15.018 14.5855 14.8832C14.4507 14.7484 14.375 14.5656 14.375 14.375C14.375 14.1844 14.4507 14.0016 14.5855 13.8668C14.7203 13.732 14.9031 13.6562 15.0938 13.6562Z" fill="#111111"/>
</svg>
