<svg width="7" height="11" viewBox="0 0 7 11" fill="none" xmlns="http://www.w3.org/2000/svg">
<path d="M3.406 0.834999C4.29 0.834999 4.99633 1.07767 5.525 1.563C6.06233 2.04833 6.331 2.71133 6.331 3.552C6.331 4.42733 6.05367 5.086 5.499 5.528C4.94433 5.97 4.20767 6.191 3.289 6.191L3.237 7.218H1.95L1.885 5.177H2.314C3.15467 5.177 3.796 5.06433 4.238 4.839C4.68867 4.61367 4.914 4.18467 4.914 3.552C4.914 3.09267 4.77967 2.733 4.511 2.473C4.251 2.213 3.887 2.083 3.419 2.083C2.951 2.083 2.58267 2.20867 2.314 2.46C2.04533 2.71133 1.911 3.06233 1.911 3.513H0.52C0.52 2.993 0.637 2.52933 0.871 2.122C1.105 1.71467 1.43867 1.39833 1.872 1.173C2.314 0.947666 2.82533 0.834999 3.406 0.834999ZM2.574 10.091C2.30533 10.091 2.08 10 1.898 9.818C1.716 9.636 1.625 9.41067 1.625 9.142C1.625 8.87333 1.716 8.648 1.898 8.466C2.08 8.284 2.30533 8.193 2.574 8.193C2.834 8.193 3.055 8.284 3.237 8.466C3.419 8.648 3.51 8.87333 3.51 9.142C3.51 9.41067 3.419 9.636 3.237 9.818C3.055 10 2.834 10.091 2.574 10.091Z" fill="#407BFF" fill-opacity="0.87"/>
</svg>
