<svg width="25" height="24" viewBox="0 0 25 24" fill="none" xmlns="http://www.w3.org/2000/svg">
<g clip-path="url(#clip0_165_4793)">
<path d="M5 2.25V21.75H17V20.25H6.5V3.75H14V8.25H18.5V9.75H20V7.2L19.775 6.975L15.275 2.475L15.05 2.25H5ZM15.5 4.8L17.45 6.75H15.5V4.8ZM8 9.75V11.25H17V9.75H8ZM20.75 11.25V12.75C19.475 12.975 18.5 14.025 18.5 15.375C18.5 16.875 19.625 18 21.125 18H21.875C22.475 18 23 18.525 23 19.125C23 19.725 22.475 20.25 21.875 20.25H19.25V21.75H20.75V23.25H22.25V21.75C23.525 21.525 24.5 20.475 24.5 19.125C24.5 17.625 23.375 16.5 21.875 16.5H21.125C20.525 16.5 20 15.975 20 15.375C20 14.775 20.525 14.25 21.125 14.25H23.75V12.75H22.25V11.25H20.75ZM8 13.5V15H13.25V13.5H8ZM14.75 13.5V15H17V13.5H14.75ZM8 16.5V18H13.25V16.5H8ZM14.75 16.5V18H17V16.5H14.75Z" fill="#111111"/>
</g>
<defs>
<clipPath id="clip0_165_4793">
<rect width="24" height="24" fill="white" transform="translate(0.5)"/>
</clipPath>
</defs>
</svg>
