<svg width="19" height="19" viewBox="0 0 19 19" fill="none" xmlns="http://www.w3.org/2000/svg">
<g clip-path="url(#clip0_48_1339)">
<path d="M12.876 12.5861C11.8899 13.7509 10.4969 14.4961 8.98064 14.6701C7.46438 14.844 5.93882 14.4336 4.71449 13.5224C3.49016 12.6112 2.65909 11.2676 2.39046 9.76527C2.12182 8.26289 2.43581 6.71461 3.2685 5.43558C4.10142 4.15669 5.3904 3.24328 6.87305 2.88128C8.3557 2.51927 9.92058 2.73589 11.2492 3.48702C12.5777 4.23815 13.5701 5.46735 14.0243 6.9244C14.4785 8.38145 14.3604 9.95683 13.694 11.3299L17.2968 13.6758C17.4123 13.7451 17.507 13.8443 17.5709 13.9629C17.6348 14.0815 17.6656 14.2151 17.6599 14.3497C17.6542 14.4843 17.6124 14.6149 17.5387 14.7277C17.465 14.8405 17.3623 14.9314 17.2414 14.9907C17.1207 15.0503 16.9862 15.0763 16.852 15.066C16.7178 15.0557 16.5889 15.0094 16.4788 14.932L12.876 12.5861ZM12.6985 7.77895C12.584 7.19359 12.3541 6.63687 12.0224 6.14115C11.6907 5.64543 11.2637 5.22063 10.7664 4.89144C10.269 4.56225 9.71108 4.33525 9.12515 4.22364C8.53922 4.11204 7.93695 4.11806 7.35337 4.24135C6.76979 4.36464 6.21655 4.60274 5.72584 4.94181C5.23512 5.28087 4.81673 5.71413 4.49499 6.21638C4.17325 6.71862 3.95459 7.27983 3.85174 7.86736C3.74888 8.45488 3.76388 9.057 3.89586 9.63867C4.1573 10.791 4.86158 11.7942 5.85653 12.4315C6.85148 13.0689 8.05723 13.2893 9.21331 13.045C10.3694 12.8008 11.383 12.1115 12.0351 11.1262C12.6872 10.1409 12.9255 8.93853 12.6985 7.77895Z" fill="#111111"/>
</g>
<defs>
<clipPath id="clip0_48_1339">
<rect width="16" height="16" fill="white" transform="translate(0 3.30725) rotate(-11.9293)"/>
</clipPath>
</defs>
</svg>
