<svg width="16" height="14" viewBox="0 0 16 14" fill="none" xmlns="http://www.w3.org/2000/svg">
<path d="M10.8763 10.586C9.89013 11.7508 8.49715 12.496 6.98089 12.67C5.46463 12.8439 3.93906 12.4335 2.71473 11.5223C1.4904 10.6111 0.659337 9.26752 0.390701 7.76515C0.122064 6.26277 0.436051 4.71449 1.26875 3.43546C2.10167 2.15657 3.39064 1.24316 4.87329 0.881157C6.35595 0.519152 7.92083 0.735763 9.2494 1.4869C10.578 2.23803 11.5704 3.46723 12.0246 4.92428C12.4788 6.38132 12.3607 7.95671 11.6943 9.32974L15.297 11.6757C15.4126 11.745 15.5073 11.8442 15.5712 11.9628C15.6351 12.0814 15.6658 12.215 15.6602 12.3496C15.6545 12.4842 15.6126 12.6148 15.539 12.7276C15.4653 12.8404 15.3626 12.9312 15.2416 12.9905C15.121 13.0502 14.9865 13.0762 14.8523 13.0659C14.7181 13.0556 14.5891 13.0093 14.479 12.9319L10.8763 10.586ZM10.6988 5.77882C10.5842 5.19347 10.3544 4.63674 10.0227 4.14103C9.69096 3.64531 9.26399 3.2205 8.7666 2.89131C8.26921 2.56212 7.71132 2.33513 7.12539 2.22352C6.53947 2.11192 5.93719 2.11794 5.35361 2.24123C4.77003 2.36452 4.2168 2.60262 3.72608 2.94169C3.23537 3.28075 2.81697 3.71401 2.49523 4.21625C2.17349 4.7185 1.95484 5.27971 1.85198 5.86724C1.74912 6.45476 1.76412 7.05688 1.8961 7.63855C2.15755 8.79086 2.86182 9.79405 3.85677 10.4314C4.85172 11.0688 6.05748 11.2891 7.21355 11.0449C8.36962 10.8007 9.38321 10.1114 10.0353 9.12608C10.6875 8.14074 10.9258 6.93841 10.6988 5.77882Z" fill="#111111"/>
</svg>
