<svg width="21" height="23" viewBox="0 0 21 23" fill="none" xmlns="http://www.w3.org/2000/svg">
<path fill-rule="evenodd" clip-rule="evenodd" d="M10.1787 7.40112C9.18415 7.40112 8.23032 7.81885 7.52706 8.5624C6.8238 9.30595 6.42871 10.3144 6.42871 11.366C6.42871 12.4175 6.8238 13.426 7.52706 14.1695C8.23032 14.9131 9.18415 15.3308 10.1787 15.3308C11.1733 15.3308 12.1271 14.9131 12.8304 14.1695C13.5336 13.426 13.9287 12.4175 13.9287 11.366C13.9287 10.3144 13.5336 9.30595 12.8304 8.5624C12.1271 7.81885 11.1733 7.40112 10.1787 7.40112ZM7.92871 11.366C7.92871 10.735 8.16576 10.13 8.58772 9.68383C9.00968 9.23769 9.58197 8.98706 10.1787 8.98706C10.7754 8.98706 11.3477 9.23769 11.7697 9.68383C12.1917 10.13 12.4287 10.735 12.4287 11.366C12.4287 11.9969 12.1917 12.602 11.7697 13.0481C11.3477 13.4942 10.7754 13.7449 10.1787 13.7449C9.58197 13.7449 9.00968 13.4942 8.58772 13.0481C8.16576 12.602 7.92871 11.9969 7.92871 11.366Z" fill="#407BFF" fill-opacity="0.87"/>
<path fill-rule="evenodd" clip-rule="evenodd" d="M10.1535 0C9.70849 0 9.33749 -1.96936e-08 9.03349 0.0211458C8.72275 0.0348269 8.41629 0.102703 8.12649 0.222031C7.79274 0.368032 7.48946 0.582117 7.23397 0.852058C6.97849 1.122 6.7758 1.44251 6.63749 1.79528C6.49249 2.16533 6.45349 2.55653 6.43749 2.98156C6.43589 3.13701 6.39697 3.28947 6.32438 3.42466C6.25179 3.55985 6.14791 3.67332 6.02249 3.75444C5.89337 3.82899 5.74845 3.86761 5.60134 3.86668C5.45423 3.86576 5.30976 3.82532 5.18149 3.74916C4.82549 3.55039 4.48549 3.39073 4.10949 3.33787C3.75143 3.28807 3.3876 3.31333 3.03878 3.4122C2.68996 3.51107 2.36297 3.68161 2.07649 3.91409C1.83426 4.12014 1.6258 4.36697 1.45949 4.64468C1.28949 4.91323 1.10349 5.25263 0.881486 5.65968L0.856486 5.7062C0.633486 6.11326 0.448486 6.45265 0.314486 6.74235C0.174486 7.04473 0.0644857 7.34289 0.0244857 7.67277C-0.070914 8.43718 0.124765 9.21035 0.568486 9.82224C0.799486 10.1405 1.10049 10.372 1.44049 10.5983C1.56725 10.6775 1.67286 10.7896 1.74738 10.9238C1.8219 11.0581 1.86289 11.2102 1.86649 11.3659C1.86289 11.5215 1.8219 11.6737 1.74738 11.8079C1.67286 11.9422 1.56725 12.0542 1.44049 12.1335C1.10049 12.3597 0.800486 12.5913 0.568486 12.9095C0.348602 13.2124 0.1873 13.5582 0.0937888 13.927C0.000277437 14.2958 -0.0236115 14.6804 0.0234858 15.059C0.0644858 15.3889 0.173486 15.687 0.313486 15.9894C0.448486 16.2791 0.633486 16.6185 0.856486 17.0256L0.881486 17.0721C1.10349 17.4791 1.28949 17.8185 1.45949 18.0871C1.63649 18.3652 1.82649 18.6157 2.07649 18.8166C2.3629 19.0493 2.68985 19.22 3.03867 19.3191C3.3875 19.4181 3.75136 19.4436 4.10949 19.3939C4.48549 19.341 4.82549 19.1824 5.18149 18.9826C5.3096 18.9065 5.45391 18.8662 5.60084 18.8652C5.74777 18.8643 5.89252 18.9029 6.02149 18.9773C6.1476 19.0578 6.25214 19.1711 6.32513 19.3064C6.39812 19.4417 6.43715 19.5945 6.43849 19.7502C6.45349 20.1752 6.49249 20.5664 6.63849 20.9365C6.77658 21.2894 6.97906 21.61 7.23437 21.8801C7.48969 22.1503 7.79283 22.3646 8.12649 22.5108C8.41649 22.6377 8.71649 22.6874 9.03349 22.7096C9.33749 22.7318 9.70849 22.7318 10.1535 22.7318H10.2035C10.6485 22.7318 11.0195 22.7318 11.3235 22.7106C11.6415 22.6874 11.9405 22.6377 12.2305 22.5097C12.5642 22.3637 12.8675 22.1497 13.123 21.8797C13.3785 21.6098 13.5812 21.2893 13.7195 20.9365C13.8645 20.5664 13.9035 20.1752 13.9195 19.7502C13.9209 19.5946 13.9598 19.4419 14.0324 19.3065C14.105 19.1711 14.2089 19.0575 14.3345 18.9763C14.4637 18.9019 14.6087 18.8634 14.7558 18.8646C14.9029 18.8657 15.0473 18.9063 15.1755 18.9826C15.5315 19.1814 15.8715 19.341 16.2475 19.3928C16.9705 19.4937 17.7018 19.2868 18.2805 18.8177C18.5305 18.6147 18.7205 18.3652 18.8975 18.0871C19.0675 17.8185 19.2535 17.4791 19.4755 17.0721L19.5005 17.0256C19.7235 16.6185 19.9085 16.2791 20.0425 15.9894C20.1825 15.687 20.2925 15.3878 20.3325 15.059C20.4279 14.2946 20.2322 13.5214 19.7885 12.9095C19.5575 12.5913 19.2565 12.3597 18.9165 12.1335C18.7897 12.0542 18.6841 11.9422 18.6096 11.8079C18.5351 11.6737 18.4941 11.5215 18.4905 11.3659C18.4905 11.072 18.6425 10.7801 18.9165 10.5983C19.2565 10.372 19.5565 10.1405 19.7885 9.82224C20.0084 9.51934 20.1697 9.17362 20.2632 8.80481C20.3567 8.43601 20.3806 8.05134 20.3335 7.67277C20.2859 7.34787 20.1879 7.03351 20.0435 6.74235C19.8728 6.39106 19.6917 6.04551 19.5005 5.7062L19.4755 5.65968C19.2928 5.3151 19.1001 4.9766 18.8975 4.64468C18.7312 4.36727 18.5227 4.12078 18.2805 3.91515C17.9941 3.68249 17.6671 3.51175 17.3183 3.4127C16.9695 3.31365 16.6056 3.28822 16.2475 3.33787C15.8715 3.39073 15.5315 3.54933 15.1755 3.74916C15.0473 3.82513 14.903 3.86547 14.7561 3.86639C14.6092 3.86732 14.4645 3.8288 14.3355 3.75444C14.2097 3.67358 14.1054 3.56021 14.0325 3.42501C13.9595 3.28981 13.9203 3.13721 13.9185 2.98156C13.9035 2.55653 13.8645 2.16533 13.7185 1.79528C13.5804 1.44241 13.3779 1.12176 13.1226 0.851634C12.8673 0.581512 12.5641 0.367212 12.2305 0.220974C11.9405 0.094099 11.6405 0.0444063 11.3235 0.0222032C11.0195 2.95404e-08 10.6485 0 10.2035 0H10.1535ZM8.70049 1.68638C8.77749 1.65255 8.89449 1.62189 9.13549 1.60391C9.38249 1.58594 9.70249 1.58594 10.1785 1.58594C10.6545 1.58594 10.9745 1.58594 11.2215 1.60391C11.4625 1.62189 11.5795 1.65255 11.6565 1.68638C11.9635 1.82066 12.2065 2.07758 12.3335 2.40217C12.3735 2.50367 12.4065 2.66332 12.4195 3.04077C12.4495 3.87815 12.8585 4.68486 13.5845 5.12786C14.3105 5.57193 15.1755 5.54232 15.8765 5.15113C16.1925 4.97456 16.3395 4.92486 16.4435 4.91112C16.7721 4.86522 17.1044 4.95915 17.3675 5.17227C17.4335 5.22619 17.5175 5.31818 17.6525 5.52964C17.7915 5.74744 17.9515 6.04031 18.1895 6.47591C18.4275 6.91152 18.5865 7.20544 18.6955 7.44016C18.8025 7.66959 18.8355 7.79224 18.8455 7.88C18.8889 8.22738 18.8001 8.57878 18.5985 8.85693C18.5345 8.94469 18.4205 9.05465 18.1185 9.25553C17.4465 9.70171 16.9905 10.4799 16.9905 11.3659C16.9905 12.2519 17.4465 13.0301 18.1185 13.4762C18.4205 13.6771 18.5345 13.7871 18.5985 13.8748C18.8005 14.1529 18.8885 14.5039 18.8455 14.8518C18.8355 14.9395 18.8015 15.0632 18.6955 15.2916C18.5865 15.5274 18.4275 15.8203 18.1895 16.2559C17.9515 16.6915 17.7905 16.9843 17.6525 17.2021C17.5175 17.4136 17.4335 17.5056 17.3675 17.5595C17.1044 17.7726 16.7721 17.8666 16.4435 17.8207C16.3395 17.8069 16.1935 17.7572 15.8765 17.5806C15.1765 17.1894 14.3105 17.1598 13.5845 17.6028C12.8585 18.0469 12.4495 18.8536 12.4195 19.691C12.4065 20.0685 12.3735 20.2281 12.3335 20.3296C12.2707 20.4901 12.1785 20.6359 12.0624 20.7587C11.9462 20.8816 11.8083 20.979 11.6565 21.0454C11.5795 21.0792 11.4625 21.1099 11.2215 21.1279C10.9745 21.1458 10.6545 21.1458 10.1785 21.1458C9.70249 21.1458 9.38249 21.1458 9.13549 21.1279C8.89449 21.1099 8.77749 21.0792 8.70049 21.0454C8.54869 20.979 8.41076 20.8816 8.2946 20.7587C8.17843 20.6359 8.08631 20.4901 8.02349 20.3296C7.98349 20.2281 7.95049 20.0685 7.93749 19.691C7.90749 18.8536 7.49849 18.0469 6.77249 17.6039C6.04649 17.1598 5.18149 17.1894 4.48049 17.5806C4.16449 17.7572 4.01749 17.8069 3.91349 17.8207C3.58492 17.8666 3.25256 17.7726 2.98949 17.5595C2.92349 17.5056 2.83949 17.4136 2.70449 17.2021C2.5164 16.8926 2.33731 16.577 2.16749 16.2559C1.92949 15.8203 1.77049 15.5263 1.66149 15.2916C1.55449 15.0622 1.52149 14.9395 1.51149 14.8518C1.46807 14.5044 1.55691 14.153 1.75849 13.8748C1.82249 13.7871 1.93649 13.6771 2.23849 13.4762C2.91049 13.0301 3.36649 12.2519 3.36649 11.3659C3.36649 10.4799 2.91049 9.70171 2.23849 9.25553C1.93649 9.05465 1.82249 8.94469 1.75849 8.85693C1.55691 8.57878 1.46807 8.22738 1.51149 7.88C1.52149 7.79224 1.55549 7.66854 1.66149 7.44016C1.77049 7.20439 1.92949 6.91152 2.16749 6.47591C2.40549 6.04031 2.56649 5.74744 2.70449 5.52964C2.83949 5.31818 2.92349 5.22619 2.98949 5.17227C3.25256 4.95915 3.58492 4.86522 3.91349 4.91112C4.01749 4.92486 4.16349 4.97456 4.48049 5.15113C5.18049 5.54232 6.04649 5.57193 6.77249 5.12786C7.49849 4.68486 7.90749 3.87815 7.93749 3.04077C7.95049 2.66332 7.98349 2.50367 8.02349 2.40217C8.15049 2.07758 8.39349 1.82066 8.70049 1.68638Z" fill="#407BFF" fill-opacity="0.87"/>
</svg>
