<svg width="11" height="7" viewBox="0 0 11 7" fill="none" xmlns="http://www.w3.org/2000/svg">
<path d="M0.515625 0H10.4844C10.6211 0 10.7523 0.0582234 10.849 0.161862C10.9457 0.2655 11 0.406065 11 0.552632C11 0.699199 10.9457 0.839763 10.849 0.943401C10.7523 1.04704 10.6211 1.10526 10.4844 1.10526H0.515625C0.378873 1.10526 0.247722 1.04704 0.151023 0.943401C0.0543246 0.839763 0 0.699199 0 0.552632C0 0.406065 0.0543246 0.2655 0.151023 0.161862C0.247722 0.0582234 0.378873 0 0.515625 0ZM2.0625 3.5C2.0625 3.35343 2.11682 3.21287 2.21352 3.10923C2.31022 3.00559 2.44137 2.94737 2.57812 2.94737H8.42188C8.55863 2.94737 8.68978 3.00559 8.78648 3.10923C8.88317 3.21287 8.9375 3.35343 8.9375 3.5C8.9375 3.64657 8.88317 3.78713 8.78648 3.89077C8.68978 3.99441 8.55863 4.05263 8.42188 4.05263H2.57812C2.44137 4.05263 2.31022 3.99441 2.21352 3.89077C2.11682 3.78713 2.0625 3.64657 2.0625 3.5ZM4.125 6.44737C4.125 6.3008 4.17932 6.16024 4.27602 6.0566C4.37272 5.95296 4.50387 5.89474 4.64062 5.89474H6.35938C6.49613 5.89474 6.62728 5.95296 6.72398 6.0566C6.82067 6.16024 6.875 6.3008 6.875 6.44737C6.875 6.59394 6.82067 6.7345 6.72398 6.83814C6.62728 6.94178 6.49613 7 6.35938 7H4.64062C4.50387 7 4.37272 6.94178 4.27602 6.83814C4.17932 6.7345 4.125 6.59394 4.125 6.44737Z" fill="#111111"/>
</svg>
